<?xml version="1.0" encoding="UTF-8"?>
<svg id="Layer_1" xmlns="http://www.w3.org/2000/svg" viewBox="0 0 131 131">
  <defs>
    <style>
      .cls-1 {
        fill: #fff;
      }

      .cls-2 {
        fill: #b64c81;
      }
    </style>
  </defs>
  <circle class="cls-2" cx="65.5" cy="65.96" r="65"/>
  <g>
    <path class="cls-1" d="M71.01,9.66c.71.43,1.24.99,1.6,1.7.36.71.52,1.51.47,2.39s-.3,1.66-.75,2.32c-.45.67-1.05,1.17-1.81,1.51s-1.61.49-2.55.44l-3.78-.21.51-9.09,3.85.21c.93.05,1.74.29,2.45.72ZM69.58,16.02c.42-.22.75-.53,1-.94.25-.41.39-.89.42-1.44.03-.54-.06-1.04-.28-1.49s-.52-.8-.92-1.06c-.4-.26-.86-.41-1.38-.43l-1.76-.1-.31,5.63,1.86.1c.5.03.96-.07,1.38-.28Z"/>
    <path class="cls-1" d="M80.26,13.34c.48.42.81.93.99,1.52s.18,1.24.01,1.93c-.17.68-.46,1.25-.89,1.7-.43.45-.96.76-1.58.92-.62.16-1.29.15-2.01-.02-.72-.18-1.33-.48-1.81-.9-.48-.42-.81-.94-.99-1.54-.18-.6-.18-1.24-.02-1.92.17-.69.47-1.26.9-1.71.43-.45.96-.75,1.58-.9s1.29-.14,2.02.03c.72.17,1.32.47,1.8.89ZM76.72,14.28c-.4.27-.67.68-.8,1.24-.13.56-.09,1.04.15,1.47s.6.69,1.11.82c.5.12.95.05,1.34-.22.4-.27.67-.68.8-1.24.13-.56.08-1.04-.15-1.47-.23-.42-.6-.69-1.09-.81-.5-.12-.96-.05-1.36.22Z"/>
    <path class="cls-1" d="M83.17,13.54l1.86.85-.7,5.2,3.48-3.9,1.78.83-.72,5.18,3.5-3.89,1.79.83-5.26,5.26-1.81-.85.58-4.82-3.3,3.55-1.81-.85.63-7.41Z"/>
    <path class="cls-1" d="M100.35,24.19c.08.67-.12,1.33-.61,1.98l-2.63,3.52-1.6-1.2,2.28-3.05c.27-.35.38-.71.33-1.06-.04-.35-.24-.66-.58-.91-.4-.29-.82-.39-1.24-.29-.43.1-.8.35-1.11.77l-2.07,2.76-1.6-1.2,4.19-5.6,1.6,1.2-.73.98c.9-.39,1.8-.25,2.71.41.62.47.98,1.03,1.06,1.7Z"/>
    <path class="cls-1" d="M104.85,23.85l1.44,1.39-6.71,6.93-1.44-1.39,6.71-6.93Z"/>
    <path class="cls-1" d="M109.22,33.2c.13.63.08,1.23-.14,1.81-.22.58-.61,1.09-1.16,1.54-.55.44-1.13.71-1.74.81-.62.1-1.22.02-1.81-.23-.59-.25-1.12-.67-1.58-1.24-.47-.58-.76-1.18-.89-1.81s-.07-1.24.15-1.82c.22-.58.61-1.1,1.16-1.54.55-.45,1.14-.72,1.75-.81.61-.1,1.21-.01,1.8.24s1.11.67,1.58,1.25c.46.57.76,1.17.89,1.8ZM105.83,31.8c-.48-.03-.94.14-1.39.5-.44.36-.7.78-.78,1.25s.06.92.38,1.32c.32.4.72.61,1.2.64.48.03.94-.14,1.39-.5.45-.36.7-.78.78-1.25.07-.48-.05-.91-.37-1.31-.33-.4-.73-.62-1.21-.65Z"/>
    <path class="cls-1" d="M107.72,43.11l.71-.41c-.37-.06-.72-.21-1.04-.45-.32-.25-.6-.58-.84-1-.37-.64-.48-1.25-.35-1.82.13-.58.48-1.03,1.04-1.35.57-.33,1.13-.38,1.68-.16.55.22,1.04.69,1.47,1.43l.96,1.67.11-.06c.32-.19.51-.44.57-.75.05-.32-.04-.68-.28-1.09-.32-.56-.85-1.06-1.57-1.5l.88-1.23c.52.34.95.69,1.31,1.05s.68.79.97,1.29c.47.81.64,1.55.51,2.22s-.53,1.2-1.21,1.6l-3.95,2.28-.98-1.7ZM108.86,41.81c.32.16.63.2.93.1l.54-.31-.78-1.36c-.19-.34-.39-.56-.59-.66-.2-.1-.42-.08-.66.06-.23.13-.37.33-.41.57-.04.25.02.52.19.81.21.36.47.62.8.79Z"/>
    <path class="cls-1" d="M120.76,49.19l-9.05,3.35-.69-1.87.96-.36c-.43-.11-.79-.31-1.1-.59-.3-.28-.54-.65-.7-1.1-.23-.62-.29-1.21-.18-1.78s.37-1.08.79-1.53c.42-.45.96-.79,1.62-1.04.66-.24,1.29-.33,1.88-.27.6.07,1.12.28,1.57.64.45.36.78.84,1.01,1.44.34.93.26,1.76-.25,2.5l3.45-1.28.69,1.87ZM112.8,49.49c.45.18.94.17,1.48-.03s.92-.51,1.14-.94c.22-.43.25-.88.07-1.36-.18-.49-.5-.82-.95-1-.45-.18-.94-.17-1.48.02-.53.21-.91.52-1.14.95-.22.43-.25.89-.07,1.38.18.48.49.81.94.99Z"/>
    <path class="cls-1" d="M121.96,62.54c-.34.62-.86.97-1.56,1.05-.48.05-.92-.04-1.31-.28-.39-.24-.67-.59-.86-1.06-.05.6-.25,1.09-.63,1.47-.37.38-.85.61-1.45.67-.78.09-1.42-.15-1.94-.71-.52-.56-.83-1.37-.95-2.42l-.48-4.3,9.04-1.02.47,4.16c.11,1,0,1.81-.34,2.43ZM115.33,61.94c.23.25.51.36.85.32.33-.04.57-.2.73-.5.16-.3.21-.69.14-1.17l-.23-2.02-2.14.24.23,2.02c.05.48.19.85.42,1.1ZM119.02,61.3c.2.2.46.28.78.25.31-.03.54-.17.69-.41.15-.24.2-.55.14-.94l-.23-2.02-1.98.22.23,2.02c.04.39.17.68.37.88Z"/>
    <path class="cls-1" d="M120.15,69.02c.21.4.31.86.3,1.38l-1.88-.06c.01-.07.02-.17.02-.31.02-.62-.13-1.11-.45-1.48-.32-.37-.76-.57-1.31-.58l-3.37-.11.07-2,6.99.23-.07,2-1.26-.04c.42.26.74.58.96.98Z"/>
    <path class="cls-1" d="M119.01,77.09c-.39.51-.87.87-1.45,1.09-.58.22-1.22.27-1.92.15-.69-.12-1.28-.38-1.76-.77s-.82-.9-1.02-1.51c-.2-.61-.24-1.28-.11-2,.12-.74.38-1.36.77-1.87.39-.51.88-.87,1.46-1.09s1.23-.27,1.92-.15c.7.12,1.29.38,1.77.78.48.4.81.9,1.01,1.51.2.61.23,1.28.11,2.02-.12.73-.38,1.34-.76,1.85ZM117.82,73.61c-.3-.38-.73-.62-1.29-.71-.56-.1-1.05-.01-1.45.25-.4.26-.65.65-.74,1.16-.09.5.02.95.31,1.33s.73.62,1.29.71c.56.1,1.05.01,1.45-.25.41-.26.65-.64.74-1.15.09-.51-.02-.96-.31-1.34Z"/>
    <path class="cls-1" d="M115.95,83.33c.16-.48.13-.92-.09-1.33s-.6-.7-1.14-.88c-.53-.18-1.02-.18-1.45,0-.43.18-.73.51-.88.97-.23.69-.15,1.29.26,1.8l-1.33,1.01c-.37-.44-.6-.95-.69-1.54s-.01-1.22.21-1.9c.22-.67.56-1.21,1.01-1.62.45-.42.98-.68,1.58-.79s1.24-.06,1.91.17c.67.23,1.22.57,1.64,1.02.42.46.68.99.79,1.6.11.61.05,1.25-.17,1.92-.21.63-.52,1.15-.93,1.57-.41.41-.88.69-1.43.84l-.49-1.59c.59-.22,1-.63,1.2-1.24Z"/>
    <path class="cls-1" d="M112.21,93.87c-.65.18-1.33.08-2.05-.3l-3.89-2.05.94-1.77,3.37,1.78c.39.21.76.26,1.1.16.34-.1.61-.34.81-.71.22-.44.25-.87.1-1.28-.16-.41-.47-.74-.93-.98l-3.05-1.61.94-1.77,8.53,4.51-.93,1.77-3.44-1.82c.53.83.54,1.75.03,2.75-.37.7-.88,1.14-1.52,1.32Z"/>
    <path class="cls-1" d="M106.99,102.18l-5.53-4.28,1.22-1.57.98.76c-.4-.91-.27-1.8.39-2.65.47-.61,1.04-.95,1.7-1.01s1.31.15,1.96.66l3.48,2.69-1.23,1.58-3.02-2.34c-.35-.27-.7-.39-1.04-.36-.34.03-.64.21-.89.53-.29.38-.38.78-.29,1.21.09.42.34.79.75,1.11l2.73,2.12-1.22,1.57Z"/>
    <path class="cls-1" d="M102.87,105.92c-.12.43-.36.84-.73,1.21l-1.32-1.35c.06-.04.13-.11.23-.21.44-.43.67-.89.7-1.38.02-.49-.16-.93-.55-1.33l-2.35-2.41,1.43-1.4,4.89,5-1.43,1.4-.88-.9c.13.48.13.94.01,1.37Z"/>
    <path class="cls-1" d="M95.79,110.83c-.86-.17-1.64-.72-2.33-1.65-.12-.17-.22-.3-.28-.39l4.01-3.01c-.36-.29-.74-.43-1.14-.44-.4,0-.79.13-1.15.4-.26.2-.48.44-.65.72-.17.28-.28.59-.32.93l-1.48-.22c.04-.53.21-1.04.48-1.51.28-.47.67-.9,1.17-1.27.59-.44,1.19-.71,1.81-.81s1.21-.02,1.77.23c.56.25,1.05.66,1.47,1.22.43.57.68,1.16.76,1.78s0,1.21-.26,1.77c-.26.57-.67,1.06-1.23,1.48-.9.68-1.78.93-2.64.76ZM95.39,108.61c.29.36.63.56,1.02.62.39.05.77-.05,1.13-.33.35-.26.55-.59.62-.98s0-.8-.23-1.22l-2.55,1.91Z"/>
    <path class="cls-1" d="M84.9,119.95l-.96.33-.41-1.21-.82.97-.78-.69.87-.95-1.27-.21.18-1.03,1.26.25-.44-1.18.96-.33.4,1.21.83-.98.77.68-.85.96,1.26.21-.17,1.04-1.26-.26.45,1.19Z"/>
    <path class="cls-1" d="M63.64,122.52c-.73-.37-1.31-.9-1.72-1.58s-.63-1.47-.64-2.35c-.01-.88.18-1.67.58-2.37s.97-1.24,1.7-1.64c.73-.4,1.57-.6,2.51-.62l3.78-.06.15,9.1-3.86.06c-.93.02-1.76-.16-2.49-.54ZM64.61,116.07c-.4.24-.71.58-.93,1.01-.22.43-.32.92-.31,1.46s.14,1.03.38,1.46.58.76.99.99c.42.23.88.34,1.4.33l1.77-.03-.09-5.64-1.86.03c-.5,0-.95.13-1.35.38Z"/>
    <path class="cls-1" d="M54.08,119.41c-.51-.39-.87-.87-1.08-1.46-.21-.58-.26-1.23-.14-1.92.12-.69.38-1.28.78-1.76.4-.48.91-.82,1.52-1.01.61-.2,1.28-.23,2-.1.73.13,1.35.39,1.86.78.51.39.87.88,1.08,1.47.21.59.26,1.23.14,1.92-.12.7-.39,1.29-.79,1.76-.4.48-.91.81-1.52,1-.61.19-1.28.22-2.02.09-.73-.13-1.34-.39-1.85-.77ZM57.56,118.24c.38-.29.62-.72.72-1.29.1-.56.02-1.05-.24-1.45-.26-.41-.64-.66-1.16-.75-.5-.09-.95.01-1.33.31s-.62.72-.72,1.29c-.1.56-.02,1.05.24,1.46.26.41.64.65,1.14.74.51.09.96-.01,1.34-.31Z"/>
    <path class="cls-1" d="M51.17,119.39l-1.91-.73.37-5.23-3.23,4.11-1.83-.71.39-5.22-3.25,4.1-1.84-.72,4.92-5.59,1.87.73-.27,4.85,3.07-3.75,1.86.73-.15,7.43Z"/>
    <path class="cls-1" d="M33.36,109.85c-.12-.66.04-1.33.49-2.01l2.41-3.67,1.67,1.1-2.09,3.19c-.24.37-.33.73-.26,1.08.07.35.28.64.63.87.42.26.84.33,1.26.21.42-.12.78-.4,1.06-.84l1.89-2.88,1.67,1.1-3.83,5.85-1.67-1.1.67-1.02c-.87.44-1.78.36-2.73-.24-.65-.43-1.04-.97-1.16-1.63Z"/>
    <path class="cls-1" d="M28.88,110.47l-1.52-1.3,6.26-7.34,1.52,1.3-6.26,7.34Z"/>
    <path class="cls-1" d="M23.95,101.44c-.17-.62-.16-1.22.03-1.82.18-.59.54-1.13,1.06-1.61.52-.47,1.08-.78,1.69-.92.61-.14,1.22-.1,1.82.12.6.22,1.16.59,1.65,1.14.5.55.84,1.13,1,1.75.16.62.15,1.23-.04,1.83-.19.6-.54,1.13-1.06,1.61-.52.48-1.09.79-1.7.92s-1.21.09-1.81-.13c-.6-.22-1.15-.6-1.66-1.15-.5-.54-.83-1.12-1-1.74ZM27.43,102.62c.48,0,.93-.19,1.35-.58.42-.39.65-.82.7-1.3s-.11-.91-.46-1.29c-.35-.38-.76-.56-1.24-.56s-.93.2-1.35.58-.65.82-.69,1.3c-.04.48.11.91.46,1.29.35.38.77.57,1.25.57Z"/>
    <path class="cls-1" d="M24.82,91.44l-.68.45c.38.03.73.16,1.07.39s.64.54.91.94c.41.61.56,1.21.46,1.8s-.42,1.06-.96,1.41c-.55.36-1.11.45-1.67.27-.56-.18-1.08-.63-1.56-1.33l-1.06-1.6-.11.07c-.31.21-.48.47-.52.79s.08.68.34,1.07c.36.54.91,1.01,1.66,1.4l-.8,1.28c-.54-.31-.99-.63-1.37-.96-.38-.33-.72-.74-1.05-1.23-.52-.78-.73-1.51-.65-2.18.08-.67.45-1.23,1.11-1.67l3.8-2.53,1.08,1.64ZM23.76,92.81c-.33-.14-.64-.16-.93-.04l-.52.34.87,1.31c.21.33.43.53.63.62.21.09.43.05.66-.1.22-.15.35-.35.38-.6.03-.25-.05-.52-.24-.8-.23-.35-.51-.59-.84-.73Z"/>
    <path class="cls-1" d="M11.41,86.2l8.81-3.92.81,1.82-.94.42c.43.08.81.25,1.13.52.32.27.58.62.77,1.05.27.6.37,1.19.29,1.77-.07.58-.3,1.1-.69,1.57-.39.47-.91.85-1.56,1.14-.64.29-1.26.41-1.86.39-.6-.03-1.13-.21-1.61-.54-.47-.33-.83-.79-1.1-1.38-.4-.9-.37-1.74.09-2.52l-3.36,1.49-.81-1.82ZM19.34,85.38c-.46-.15-.95-.11-1.47.12s-.88.57-1.08,1.01-.19.9.02,1.37c.21.47.55.79,1.01.94.46.15.95.11,1.48-.11.52-.24.88-.58,1.07-1.03.2-.44.19-.9-.02-1.38-.21-.47-.54-.78-1-.93Z"/>
    <path class="cls-1" d="M9.36,72.94c.3-.64.8-1.03,1.49-1.15.48-.08.92-.02,1.32.19.4.21.71.55.92,1,0-.6.19-1.1.53-1.51s.81-.66,1.4-.76c.77-.14,1.43.06,1.98.59s.92,1.31,1.1,2.35l.75,4.26-8.96,1.59-.73-4.12c-.17-.99-.11-1.81.19-2.45ZM12.38,74c-.21-.19-.48-.25-.79-.2-.31.05-.53.21-.66.45-.13.25-.16.56-.08.95l.35,2,1.96-.35-.35-2c-.07-.38-.21-.67-.42-.86ZM16.02,73.12c-.24-.24-.53-.33-.87-.27-.32.06-.56.24-.7.54-.14.31-.16.7-.07,1.17l.35,2,2.12-.38-.35-2c-.08-.48-.25-.84-.49-1.08Z"/>
    <path class="cls-1" d="M10.77,66.38c-.24-.38-.37-.83-.39-1.35l1.88-.06c0,.07,0,.17,0,.31.02.62.2,1.1.54,1.45.34.35.79.52,1.35.5l3.37-.1.06,2-6.99.21-.06-2,1.26-.04c-.44-.23-.78-.54-1.02-.92Z"/>
    <path class="cls-1" d="M11.39,58.22c.35-.53.81-.93,1.38-1.18.57-.25,1.2-.34,1.91-.27.7.07,1.3.29,1.81.66.51.37.88.85,1.12,1.45.24.6.32,1.26.24,1.99-.08.74-.3,1.38-.65,1.91-.36.53-.82.93-1.39,1.18-.57.25-1.21.34-1.9.27-.71-.07-1.31-.3-1.81-.66-.5-.37-.87-.85-1.1-1.44-.23-.6-.31-1.26-.23-2.01.08-.73.29-1.37.65-1.9ZM12.8,61.61c.32.36.76.57,1.33.63.57.06,1.05-.05,1.44-.34s.61-.69.66-1.2c.05-.51-.08-.94-.4-1.3-.32-.36-.76-.57-1.33-.63-.57-.06-1.05.05-1.43.34-.39.29-.61.68-.66,1.19-.05.52.08.96.4,1.32Z"/>
    <path class="cls-1" d="M14.05,51.81c-.13.49-.07.93.18,1.32s.65.66,1.19.81c.54.15,1.03.11,1.45-.1.42-.21.69-.55.82-1.02.19-.7.06-1.3-.37-1.78l1.26-1.09c.4.41.66.91.79,1.49s.09,1.22-.09,1.91c-.18.68-.48,1.24-.91,1.68-.42.44-.93.74-1.53.89-.6.15-1.23.13-1.91-.05-.69-.18-1.25-.49-1.7-.92-.45-.43-.74-.94-.89-1.54-.15-.6-.13-1.24.05-1.93.17-.64.45-1.19.83-1.62.38-.44.84-.75,1.37-.93l.59,1.56c-.58.26-.95.7-1.12,1.32Z"/>
    <path class="cls-1" d="M17.12,41.04c.63-.22,1.32-.17,2.06.17l4.01,1.8-.82,1.83-3.47-1.56c-.4-.18-.77-.21-1.11-.09-.33.12-.59.37-.76.76-.19.45-.2.88-.01,1.28.19.4.52.71.99.92l3.14,1.41-.82,1.83-8.8-3.96.82-1.83,3.54,1.6c-.58-.79-.65-1.71-.2-2.74.32-.72.8-1.19,1.43-1.41Z"/>
    <path class="cls-1" d="M21.8,32.45l5.79,3.92-1.12,1.65-1.02-.69c.46.89.38,1.78-.23,2.67-.43.64-.98,1.01-1.63,1.12s-1.32-.07-2-.53l-3.64-2.46,1.12-1.66,3.16,2.14c.37.25.72.35,1.06.29.34-.05.62-.25.85-.58.26-.4.33-.81.21-1.22-.12-.41-.39-.77-.82-1.06l-2.86-1.94,1.12-1.65Z"/>
    <path class="cls-1" d="M25.68,28.44c.09-.44.31-.86.65-1.25l1.4,1.26c-.05.05-.13.12-.22.22-.41.46-.62.93-.61,1.42,0,.49.22.92.63,1.29l2.5,2.26-1.34,1.49-5.19-4.69,1.34-1.49.94.84c-.16-.47-.19-.93-.1-1.37Z"/>
    <path class="cls-1" d="M32.45,23.1c.87.11,1.68.61,2.43,1.5.13.16.24.28.3.37l-3.82,3.26c.37.26.76.38,1.17.36.4-.02.78-.18,1.12-.47.25-.21.45-.47.6-.76.15-.29.24-.61.26-.95l1.49.13c-.01.53-.14,1.05-.39,1.54-.25.49-.61.94-1.08,1.34-.56.48-1.14.78-1.75.92-.61.13-1.2.09-1.78-.12-.58-.21-1.09-.59-1.55-1.12-.46-.54-.75-1.11-.87-1.72-.12-.61-.07-1.2.15-1.79.22-.58.6-1.1,1.13-1.56.86-.73,1.72-1.04,2.59-.93ZM32.99,25.28c-.31-.34-.66-.52-1.05-.55-.39-.03-.76.1-1.11.4-.33.28-.52.62-.56,1.02-.04.4.06.8.3,1.2l2.42-2.07Z"/>
    <path class="cls-1" d="M49.26,10.94l.97-.28.34,1.23.87-.93.74.74-.92.9,1.26.29-.24,1.01-1.24-.32.37,1.21-.97.28-.33-1.23-.88.93-.73-.72.9-.91-1.24-.28.23-1.03,1.24.33-.38-1.22Z"/>
  </g>
  <g>
    <path class="cls-1" d="M56.47,76.8c-.54,0-.9-.18-1.26-.54-.72-.72-.72-1.81,0-2.53l18.06-18.06c.72-.72,1.81-.72,2.53,0,.72.72.72,1.81,0,2.53l-18.06,18.06c-.36.36-.72.54-1.26.54Z"/>
    <path class="cls-1" d="M74.53,74.99c-1.08,0-1.81-.72-1.81-1.81v-14.44h-14.44c-1.08,0-1.81-.72-1.81-1.81s.72-1.81,1.81-1.81h16.25c1.08,0,1.81.72,1.81,1.81v16.25c0,1.08-.72,1.81-1.81,1.81Z"/>
  </g>
</svg>