<svg xmlns="http://www.w3.org/2000/svg" xmlns:xlink="http://www.w3.org/1999/xlink" width="100" zoomAndPan="magnify" viewBox="0 0 75 74.999997" height="100" preserveAspectRatio="xMidYMid meet" version="1.0"><defs><clipPath id="54b631b32d"><path d="M 1.085938 1.085938 L 73.835938 1.085938 L 73.835938 73.835938 L 1.085938 73.835938 Z M 1.085938 1.085938 " clip-rule="nonzero"/></clipPath></defs><path fill="#a23072" d="M 37.460938 12.960938 C 23.929688 12.960938 12.960938 23.929688 12.960938 37.460938 C 12.960938 50.992188 23.929688 61.964844 37.460938 61.964844 C 50.992188 61.964844 61.964844 50.992188 61.964844 37.460938 C 61.964844 23.929688 50.992188 12.960938 37.460938 12.960938 Z M 37.460938 59.550781 C 25.269531 59.550781 15.375 49.65625 15.375 37.460938 C 15.375 25.269531 25.269531 15.375 37.460938 15.375 C 49.65625 15.375 59.550781 25.269531 59.550781 37.460938 C 59.550781 49.65625 49.65625 59.550781 37.460938 59.550781 Z M 37.460938 59.550781 " fill-opacity="1" fill-rule="nonzero"/><path fill="#a23072" d="M 37.460938 16.25 C 25.734375 16.25 16.25 25.734375 16.25 37.460938 C 16.25 49.191406 25.734375 58.675781 37.460938 58.675781 C 49.191406 58.675781 58.675781 49.191406 58.675781 37.460938 C 58.675781 25.734375 49.191406 16.25 37.460938 16.25 Z M 56 38.421875 C 55.59375 46.628906 49.714844 53.496094 41.972656 55.445312 L 41.972656 49.015625 C 40.546875 49.539062 39.035156 49.800781 37.460938 49.800781 C 35.890625 49.800781 34.378906 49.511719 32.953125 48.984375 L 32.953125 55.417969 C 24.601562 53.320312 18.488281 45.582031 18.925781 36.472656 C 19.390625 27.042969 27.074219 19.390625 36.472656 18.925781 C 47.472656 18.371094 56.523438 27.421875 55.96875 38.421875 Z M 56 38.421875 " fill-opacity="1" fill-rule="nonzero"/><g clip-path="url(#54b631b32d)"><path fill="#a23072" d="M 68.65625 33.503906 L 73.109375 31.03125 C 72.265625 27.917969 72.382812 28.355469 71.566406 25.242188 L 66.476562 25.328125 C 62.925781 25.386719 60.683594 21.515625 62.519531 18.460938 L 65.136719 14.09375 C 62.867188 11.824219 63.15625 12.117188 60.886719 9.847656 L 56.523438 12.464844 C 53.46875 14.300781 49.597656 12.058594 49.65625 8.507812 L 49.742188 3.414062 C 46.628906 2.570312 47.066406 2.6875 43.953125 1.875 L 41.476562 6.324219 C 39.761719 9.4375 35.28125 9.4375 33.535156 6.324219 L 31.058594 1.875 C 27.945312 2.71875 28.382812 2.601562 25.269531 3.414062 L 25.355469 8.507812 C 25.414062 12.058594 21.542969 14.300781 18.488281 12.464844 L 14.125 9.847656 C 11.855469 12.117188 12.144531 11.824219 9.875 14.09375 L 12.496094 18.460938 C 14.328125 21.515625 12.085938 25.386719 8.535156 25.328125 L 3.445312 25.242188 C 2.601562 28.355469 2.71875 27.917969 1.902344 31.03125 L 6.355469 33.503906 C 9.46875 35.222656 9.46875 39.703125 6.355469 41.449219 L 1.902344 43.921875 C 2.746094 47.035156 2.628906 46.601562 3.445312 49.714844 L 8.535156 49.625 C 12.085938 49.566406 14.328125 53.4375 12.496094 56.492188 L 9.875 60.859375 C 12.144531 63.128906 11.855469 62.835938 14.125 65.109375 L 18.488281 62.488281 C 21.542969 60.65625 25.414062 62.894531 25.355469 66.445312 L 25.269531 71.539062 C 28.382812 72.382812 27.945312 72.265625 31.058594 73.082031 L 33.535156 68.628906 C 35.25 65.515625 39.730469 65.515625 41.476562 68.628906 L 43.953125 73.082031 C 47.066406 72.238281 46.628906 72.351562 49.742188 71.539062 L 49.65625 66.445312 C 49.597656 62.894531 53.46875 60.65625 56.523438 62.488281 L 60.886719 65.109375 C 63.15625 62.835938 62.867188 63.128906 65.136719 60.859375 L 62.519531 56.492188 C 60.683594 53.4375 62.925781 49.566406 66.476562 49.625 L 71.566406 49.714844 C 72.410156 46.601562 72.296875 47.035156 73.109375 43.921875 L 68.65625 41.449219 C 65.542969 39.730469 65.542969 35.25 68.65625 33.503906 Z M 37.460938 64.089844 C 22.765625 64.089844 10.835938 52.15625 10.835938 37.460938 C 10.835938 22.765625 22.765625 10.835938 37.460938 10.835938 C 52.15625 10.835938 64.089844 22.765625 64.089844 37.460938 C 64.089844 52.15625 52.15625 64.089844 37.460938 64.089844 Z M 37.460938 64.089844 " fill-opacity="1" fill-rule="nonzero"/></g><path fill="#a23072" d="M 44.214844 26.871094 L 44.214844 35.601562 L 48.664062 33.125 C 47.910156 30.566406 46.339844 28.382812 44.214844 26.871094 Z M 44.214844 26.871094 " fill-opacity="1" fill-rule="nonzero"/><path fill="#a23072" d="M 44.214844 36.96875 L 37.460938 40.867188 L 30.710938 36.96875 L 30.710938 26.871094 C 27.742188 28.996094 25.792969 32.457031 25.792969 36.386719 C 25.792969 42.847656 31.03125 48.054688 37.460938 48.054688 C 43.894531 48.054688 49.132812 42.816406 49.132812 36.386719 C 49.132812 35.6875 49.074219 34.988281 48.957031 34.320312 Z M 44.214844 36.96875 " fill-opacity="1" fill-rule="nonzero"/></svg>