<svg xmlns="http://www.w3.org/2000/svg" xmlns:xlink="http://www.w3.org/1999/xlink" width="70" zoomAndPan="magnify" viewBox="0 0 52.5 52.499999" height="70" preserveAspectRatio="xMidYMid meet" version="1.0"><path fill="#ffffff" d="M 16.332031 14.820312 C 16.007812 14.820312 15.742188 14.554688 15.742188 14.226562 L 15.742188 6.3125 C 15.742188 5.984375 16.007812 5.722656 16.332031 5.722656 C 16.660156 5.722656 16.921875 5.984375 16.921875 6.3125 L 16.921875 14.226562 C 16.921875 14.554688 16.660156 14.820312 16.332031 14.820312 Z M 8.210938 28.609375 C 7.886719 28.609375 7.625 28.34375 7.625 28.019531 L 7.625 6.3125 C 7.625 5.984375 7.886719 5.722656 8.210938 5.722656 C 8.539062 5.722656 8.804688 5.984375 8.804688 6.3125 L 8.804688 28.019531 C 8.804688 28.34375 8.539062 28.609375 8.210938 28.609375 Z M 8.210938 28.609375 " fill-opacity="1" fill-rule="nonzero"/><path fill="#ffffff" d="M 7.234375 5.722656 L 17.3125 5.722656 L 17.3125 3.640625 L 7.234375 3.640625 Z M 17.902344 6.902344 L 6.644531 6.902344 C 6.320312 6.902344 6.054688 6.636719 6.054688 6.3125 L 6.054688 3.046875 C 6.054688 2.726562 6.320312 2.460938 6.644531 2.460938 L 17.902344 2.460938 C 18.226562 2.460938 18.492188 2.726562 18.492188 3.046875 L 18.492188 6.3125 C 18.492188 6.636719 18.226562 6.902344 17.902344 6.902344 Z M 17.902344 6.902344 " fill-opacity="1" fill-rule="nonzero"/><path fill="#ffffff" d="M 36.625 28.609375 C 36.300781 28.609375 36.039062 28.34375 36.039062 28.019531 L 36.039062 12.910156 L 28.800781 17.082031 C 28.410156 17.3125 27.917969 17.023438 27.917969 16.570312 L 27.917969 12.910156 L 20.6875 17.082031 C 20.292969 17.3125 19.800781 17.019531 19.800781 16.570312 L 19.800781 12.910156 L 12.863281 16.914062 L 12.863281 28.019531 C 12.863281 28.34375 12.597656 28.609375 12.273438 28.609375 C 11.945312 28.609375 11.679688 28.34375 11.679688 28.019531 L 11.679688 16.570312 C 11.679688 16.363281 11.792969 16.167969 11.976562 16.0625 L 20.097656 11.375 C 20.492188 11.148438 20.980469 11.433594 20.980469 11.886719 L 20.980469 15.550781 L 28.214844 11.375 C 28.605469 11.148438 29.097656 11.433594 29.097656 11.886719 L 29.097656 15.550781 L 36.332031 11.375 C 36.730469 11.144531 37.21875 11.4375 37.21875 11.886719 L 37.21875 28.019531 C 37.21875 28.34375 36.953125 28.609375 36.625 28.609375 Z M 36.625 28.609375 " fill-opacity="1" fill-rule="nonzero"/><path fill="#ffffff" d="M 16.898438 24.058594 L 21.507812 24.058594 L 21.507812 20.894531 L 16.898438 20.894531 Z M 22.097656 25.238281 L 16.308594 25.238281 C 15.984375 25.238281 15.71875 24.972656 15.71875 24.648438 L 15.71875 20.304688 C 15.71875 19.980469 15.984375 19.714844 16.308594 19.714844 L 22.097656 19.714844 C 22.421875 19.714844 22.6875 19.980469 22.6875 20.304688 L 22.6875 24.648438 C 22.6875 24.972656 22.421875 25.238281 22.097656 25.238281 Z M 22.097656 25.238281 " fill-opacity="1" fill-rule="nonzero"/><path fill="#ffffff" d="M 27.394531 24.058594 L 32 24.058594 L 32 20.894531 L 27.394531 20.894531 Z M 32.589844 25.238281 L 26.800781 25.238281 C 26.476562 25.238281 26.210938 24.972656 26.210938 24.648438 L 26.210938 20.304688 C 26.210938 19.980469 26.476562 19.714844 26.800781 19.714844 L 32.589844 19.714844 C 32.917969 19.714844 33.183594 19.980469 33.183594 20.304688 L 33.183594 24.648438 C 33.183594 24.972656 32.917969 25.238281 32.589844 25.238281 Z M 32.589844 25.238281 " fill-opacity="1" fill-rule="nonzero"/><path fill="#ffffff" d="M 5.84375 29.996094 L 39 29.996094 L 39 28.609375 L 5.84375 28.609375 Z M 39.589844 31.179688 L 5.253906 31.179688 C 4.925781 31.179688 4.660156 30.914062 4.660156 30.585938 L 4.660156 28.019531 C 4.660156 27.695312 4.925781 27.429688 5.253906 27.429688 L 39.589844 27.429688 C 39.914062 27.429688 40.179688 27.695312 40.179688 28.019531 L 40.179688 30.585938 C 40.179688 30.914062 39.914062 31.179688 39.589844 31.179688 Z M 39.589844 31.179688 " fill-opacity="1" fill-rule="nonzero"/><path fill="#ffffff" d="M 14.800781 44.992188 C 14.90625 44.992188 15.015625 45.023438 15.109375 45.082031 C 16.335938 45.832031 17.675781 46.382812 19.082031 46.726562 C 19.347656 46.792969 19.535156 47.027344 19.535156 47.300781 L 19.535156 49.003906 C 19.535156 49.347656 19.816406 49.628906 20.164062 49.628906 L 24.679688 49.628906 C 25.023438 49.628906 25.304688 49.347656 25.304688 49.003906 L 25.304688 47.300781 C 25.304688 47.027344 25.492188 46.792969 25.753906 46.726562 C 27.152344 46.386719 28.492188 45.832031 29.730469 45.082031 C 29.964844 44.9375 30.261719 44.972656 30.453125 45.167969 L 31.660156 46.371094 C 31.90625 46.613281 32.300781 46.613281 32.546875 46.371094 L 35.742188 43.175781 C 35.984375 42.929688 35.984375 42.53125 35.742188 42.285156 L 34.539062 41.085938 C 34.347656 40.894531 34.308594 40.59375 34.453125 40.359375 C 35.203125 39.125 35.757812 37.789062 36.097656 36.386719 C 36.164062 36.125 36.398438 35.9375 36.671875 35.9375 L 38.375 35.9375 C 38.714844 35.9375 39 35.65625 39 35.308594 L 39 33.640625 L 32.015625 33.640625 C 31.707031 38.667969 27.519531 42.664062 22.421875 42.664062 C 17.324219 42.664062 13.132812 38.667969 12.824219 33.640625 L 5.84375 33.640625 L 5.84375 35.308594 C 5.84375 35.65625 6.125 35.9375 6.46875 35.9375 L 8.167969 35.9375 C 8.441406 35.9375 8.679688 36.125 8.742188 36.386719 C 9.082031 37.789062 9.636719 39.125 10.390625 40.359375 C 10.53125 40.59375 10.496094 40.894531 10.304688 41.085938 L 9.101562 42.289062 C 8.855469 42.535156 8.855469 42.929688 9.101562 43.175781 L 12.296875 46.371094 C 12.542969 46.617188 12.9375 46.613281 13.179688 46.371094 L 14.382812 45.167969 C 14.496094 45.054688 14.648438 44.992188 14.800781 44.992188 Z M 24.679688 50.8125 L 20.164062 50.8125 C 19.164062 50.8125 18.355469 50 18.355469 49.003906 L 18.355469 47.757812 C 17.144531 47.421875 15.984375 46.941406 14.894531 46.324219 L 14.015625 47.203125 C 13.308594 47.910156 12.164062 47.910156 11.460938 47.203125 L 8.265625 44.011719 C 7.558594 43.304688 7.558594 42.15625 8.265625 41.453125 L 9.148438 40.574219 C 8.527344 39.480469 8.042969 38.324219 7.710938 37.117188 L 6.46875 37.117188 C 5.472656 37.117188 4.660156 36.304688 4.660156 35.308594 L 4.660156 33.046875 C 4.660156 32.722656 4.925781 32.457031 5.253906 32.457031 L 13.398438 32.457031 C 13.726562 32.457031 13.988281 32.722656 13.988281 33.046875 C 13.988281 37.699219 17.773438 41.484375 22.421875 41.484375 C 27.070312 41.484375 30.851562 37.699219 30.851562 33.046875 C 30.851562 32.722656 31.117188 32.457031 31.441406 32.457031 L 39.589844 32.457031 C 39.914062 32.457031 40.179688 32.722656 40.179688 33.046875 L 40.179688 35.308594 C 40.179688 36.304688 39.371094 37.117188 38.375 37.117188 L 37.128906 37.117188 C 36.796875 38.324219 36.316406 39.480469 35.695312 40.574219 L 36.574219 41.453125 C 37.277344 42.160156 37.277344 43.304688 36.578125 44.007812 L 33.378906 47.203125 C 32.675781 47.90625 31.53125 47.90625 30.824219 47.203125 L 29.945312 46.324219 C 28.851562 46.945312 27.691406 47.425781 26.484375 47.757812 L 26.484375 49.003906 C 26.484375 50 25.671875 50.8125 24.679688 50.8125 Z M 24.679688 50.8125 " fill-opacity="1" fill-rule="nonzero"/><path fill="#ffffff" d="M 46.738281 12.476562 C 46.410156 12.476562 46.148438 12.210938 46.148438 11.886719 C 46.148438 6.636719 41.878906 2.363281 36.625 2.363281 C 36.300781 2.363281 36.039062 2.097656 36.039062 1.773438 C 36.039062 1.449219 36.300781 1.183594 36.625 1.183594 C 42.53125 1.183594 47.332031 5.984375 47.332031 11.886719 C 47.332031 12.210938 47.066406 12.476562 46.738281 12.476562 Z M 46.738281 12.476562 " fill-opacity="1" fill-rule="nonzero"/><path fill="#ffffff" d="M 43.183594 12.476562 C 42.859375 12.476562 42.59375 12.210938 42.59375 11.886719 C 42.59375 8.597656 39.917969 5.921875 36.625 5.921875 C 36.300781 5.921875 36.039062 5.65625 36.039062 5.328125 C 36.039062 5.003906 36.300781 4.738281 36.625 4.738281 C 40.566406 4.738281 43.773438 7.945312 43.773438 11.886719 C 43.773438 12.210938 43.507812 12.476562 43.183594 12.476562 Z M 43.183594 12.476562 " fill-opacity="1" fill-rule="nonzero"/><path fill="#ffffff" d="M 39.625 12.476562 C 39.304688 12.476562 39.039062 12.210938 39.039062 11.886719 C 39.039062 10.558594 37.957031 9.476562 36.625 9.476562 C 36.300781 9.476562 36.039062 9.210938 36.039062 8.886719 C 36.039062 8.558594 36.300781 8.296875 36.625 8.296875 C 38.609375 8.296875 40.21875 9.90625 40.21875 11.886719 C 40.21875 12.210938 39.957031 12.476562 39.625 12.476562 Z M 39.625 12.476562 " fill-opacity="1" fill-rule="nonzero"/></svg>