<?xml version="1.0" encoding="UTF-8"?>
<svg id="Layer_1" xmlns="http://www.w3.org/2000/svg" viewBox="0 0 21 21">
  <defs>
    <style>
      .cls-1 {
        fill: #fff;
      }
    </style>
  </defs>
  <path class="cls-1" d="M13.07,18.84c-.81.25-1.68.39-2.57.39-1.21,0-2.35-.24-3.39-.69-1.56-.66-2.9-1.77-3.84-3.16-.94-1.39-1.49-3.07-1.49-4.88,0-1.53.39-2.96,1.08-4.21.48-.87,1.11-1.63,1.84-2.29v1.1h1.37V1.91h-3.2v1.37h.61c-.71.69-1.34,1.48-1.82,2.35-.8,1.44-1.25,3.11-1.25,4.87H.41c0,1.39.28,2.72.79,3.93.77,1.81,2.05,3.35,3.66,4.44,1.58,1.07,3.49,1.7,5.54,1.72h0s.1,0,.1,0h0c1.04,0,2.04-.16,2.98-.45l.1-.03-.4-1.31-.1.03Z"/>
  <path class="cls-1" d="M19.8,6.57c-.77-1.81-2.05-3.35-3.66-4.44-1.61-1.09-3.55-1.72-5.64-1.72h0c-1.03,0-2.04.16-2.98.45l-.1.03.4,1.31.1-.03c.81-.25,1.68-.39,2.57-.39,1.21,0,2.35.24,3.39.69,1.56.66,2.9,1.77,3.84,3.16.94,1.39,1.49,3.07,1.49,4.88,0,1.53-.39,2.96-1.08,4.21-.48.87-1.11,1.63-1.84,2.29v-1.1h-1.37v3.2h3.2v-1.37h-.61c.71-.69,1.34-1.48,1.82-2.35.8-1.44,1.25-3.11,1.25-4.87h0c0-1.39-.28-2.72-.79-3.93Z"/>
  <path class="cls-1" d="M4.5,13.96l6,3.46,6-3.46v-6.93l-6-3.46-.34.2-.03.02-5.62,3.25v6.93ZM8.81,12.06h0l-.54-.93-.05-.09-2.35,1.36v-3.78l3.94,2.28v4.55l-3.24-1.87,2.33-1.35-.1-.17ZM12.78,11.05l-.05.09-.54.93h0l-.1.17,2.33,1.35-3.24,1.87v-4.55l3.94-2.28v3.78l-2.35-1.36ZM10.5,9.71l-3.94-2.28,3.94-2.28,3.94,2.28-3.94,2.28Z"/>
</svg>