<?xml version="1.0" encoding="UTF-8"?>
<svg id="Layer_1" xmlns="http://www.w3.org/2000/svg" viewBox="0 0 21 21">
  <defs>
    <style>
      .cls-1 {
        fill: #fff;
      }
    </style>
  </defs>
  <path class="cls-1" d="M20.05,6.47c-.79-1.86-2.11-3.44-3.76-4.57-.83-.56-1.74-1.01-2.71-1.31-.97-.3-2.01-.47-3.07-.47h0s0,0,0,0c0,0,0,0,0,0h0c-1.19,0-2.34.2-3.4.58-.89.31-1.71.74-2.47,1.27-.13-.08-.26-.15-.41-.2h0c-.18-.06-.37-.09-.57-.09h0s0,0,0,0c0,0,0,0,0,0h0c-.26,0-.51.05-.74.15-.34.15-.63.39-.84.69-.1.15-.18.32-.24.5-.06.18-.09.37-.09.57h0c0,.26.05.52.15.74.04.08.09.15.14.23-.53.76-.97,1.6-1.29,2.49-.38,1.08-.6,2.24-.6,3.43H.13c0,1.42.29,2.79.82,4.03.79,1.86,2.11,3.44,3.76,4.57.83.56,1.74,1.01,2.71,1.31.97.3,2.01.47,3.07.47h0c1.2,0,2.35-.22,3.41-.6.89-.32,1.71-.76,2.46-1.29.13.08.26.15.41.2.18.06.37.09.57.09h0s0,0,0,0h0c.26,0,.51-.05.74-.15.34-.15.63-.39.84-.69.1-.15.18-.32.24-.5.05-.15.06-.3.07-.46h.02v-.21s-.01,0-.01,0c-.01-.22-.06-.44-.14-.64-.04-.08-.09-.15-.14-.23.53-.76.97-1.58,1.29-2.47.38-1.07.6-2.22.6-3.41h0c0-1.43-.29-2.79-.82-4.03ZM17.84,15.52c-.15-.04-.31-.07-.48-.07h0c-.26,0-.51.05-.74.15-.34.15-.63.39-.84.69-.1.15-.18.32-.24.5-.06.18-.09.37-.09.57h0s0,0,0,0c0,.17.03.32.07.48-.64.45-1.33.83-2.08,1.1-.92.33-1.91.52-2.94.52-1.23,0-2.4-.25-3.47-.71-1.61-.68-2.98-1.83-3.95-3.26-.49-.72-.87-1.5-1.13-2.34-.26-.84-.4-1.73-.4-2.65,0-1.03.18-2.03.52-2.96.27-.76.66-1.46,1.11-2.1.15.04.31.07.47.07h0s0,0,0,0h0c.26,0,.51-.05.74-.15.34-.15.63-.39.84-.69.1-.15.18-.32.24-.5.05-.15.06-.3.07-.46h.02v-.21s-.01,0-.01,0c0-.13-.03-.25-.06-.37.64-.44,1.33-.82,2.08-1.08.92-.32,1.91-.5,2.94-.5,1.23,0,2.4.25,3.47.71,1.61.68,2.98,1.83,3.95,3.26.49.72.87,1.5,1.13,2.34.26.84.4,1.73.4,2.65,0,1.03-.18,2.01-.52,2.94-.27.75-.66,1.44-1.11,2.09ZM17.64,17.77l-.13.06-.15.02-.2-.04-.21-.18-.06-.13-.02-.15.04-.2.18-.21.13-.06.15-.02.2.04.21.18.06.13.02.15-.04.2-.18.21ZM3.36,3.19l.13-.06.15-.02.2.04.21.18.06.13.02.15-.04.2-.18.21-.13.06-.15.02-.2-.04-.21-.18-.06-.13-.02-.15.04-.2.18-.21Z"/>
  <path class="cls-1" d="M14.26,4.9c-.54-.37-1.13-.66-1.76-.86-.63-.2-1.3-.31-2-.31h0s0,0,0,0c0,0,0,0,0,0h0c-.92,0-1.81.19-2.61.54-1.21.52-2.23,1.38-2.96,2.46-.36.54-.65,1.13-.85,1.77-.2.63-.3,1.31-.3,2h0s0,0,0,0c0,.92.19,1.81.53,2.61.51,1.21,1.36,2.23,2.44,2.96.54.36,1.13.65,1.76.85.6.19,1.24.28,1.89.3h0s.1,0,.1,0h.11s0,0,0,0c.89-.01,1.74-.2,2.51-.52,1.21-.51,2.23-1.36,2.96-2.44.36-.54.65-1.13.85-1.76.2-.63.3-1.3.3-1.99h0c0-.93-.19-1.82-.53-2.62-.51-1.21-1.36-2.24-2.43-2.98ZM15.81,10.5c0,.17-.03.33-.05.5h-3.76l-.79-.79v-.2h4.57c.02.16.04.33.04.5ZM10.5,15.81c-.73,0-1.43-.15-2.06-.42-.41-.18-.8-.41-1.15-.68l3.21-3.21,3.21,3.21c-.08.06-.16.13-.24.19-.42.29-.89.51-1.39.67-.5.16-1.03.24-1.58.24ZM11.21,8.59v-.99h3.74c.2.31.36.65.5.99h-4.24ZM11.21,6.18v-.96c.47.06.93.17,1.35.35.37.16.72.37,1.04.61h-2.4ZM9.79,5.2v5l-3.5,3.5c-.06-.08-.13-.16-.19-.24-.29-.42-.51-.89-.67-1.39-.16-.5-.24-1.03-.24-1.58,0-.73.15-1.43.42-2.07.4-.96,1.08-1.78,1.93-2.36.42-.29.89-.52,1.39-.68.28-.09.57-.15.87-.19ZM13.41,12.41h2.03s-.03.11-.05.15c-.18.41-.41.8-.68,1.15l-1.3-1.3Z"/>
  <polygon class="cls-1" points="7.39 7.49 7.39 8.7 7.39 8.8 8.7 8.8 8.8 8.8 8.8 7.49 8.7 7.49 8.59 7.49 7.6 7.49 7.49 7.49 7.39 7.49"/>
  <polygon class="cls-1" points="7.39 9.9 6.39 9.9 6.29 9.9 6.18 9.9 6.18 11.1 6.18 11.21 7.49 11.21 7.6 11.21 7.6 9.9 7.49 9.9 7.39 9.9"/>
</svg>