<svg xmlns="http://www.w3.org/2000/svg" xmlns:xlink="http://www.w3.org/1999/xlink" width="70" zoomAndPan="magnify" viewBox="0 0 52.5 52.499999" height="70" preserveAspectRatio="xMidYMid meet" version="1.0"><path fill="#ffffff" d="M 29.925781 43.039062 L 1.898438 43.039062 C 1.570312 43.039062 1.308594 42.777344 1.308594 42.453125 L 1.308594 35.136719 C 1.308594 35.128906 1.308594 35.121094 1.308594 35.113281 C 1.414062 32.277344 2.769531 29.789062 5.230469 27.917969 C 7.402344 26.265625 10.351562 25.128906 13.757812 24.632812 C 14.082031 24.585938 14.378906 24.808594 14.425781 25.128906 C 14.472656 25.453125 14.25 25.75 13.929688 25.796875 C 8.535156 26.585938 2.699219 29.453125 2.484375 35.144531 L 2.484375 41.863281 L 29.925781 41.863281 C 30.25 41.863281 30.515625 42.128906 30.515625 42.453125 C 30.515625 42.777344 30.25 43.042969 29.925781 43.042969 Z M 32.589844 32.863281 C 32.355469 32.863281 32.136719 32.726562 32.042969 32.496094 C 30.660156 29.09375 26.589844 26.589844 21.160156 25.796875 C 20.835938 25.75 20.613281 25.453125 20.660156 25.128906 C 20.707031 24.808594 21.007812 24.585938 21.328125 24.632812 C 24.0625 25.03125 26.558594 25.863281 28.542969 27.039062 C 30.769531 28.355469 32.316406 30.042969 33.132812 32.050781 C 33.257812 32.355469 33.113281 32.699219 32.808594 32.820312 C 32.738281 32.847656 32.664062 32.863281 32.589844 32.863281 Z M 32.589844 32.863281 " fill-opacity="1" fill-rule="nonzero"/><path fill="#ffffff" d="M 17.542969 26.675781 C 12.65625 26.675781 8.679688 22.699219 8.679688 17.816406 C 8.679688 12.929688 12.65625 8.953125 17.542969 8.953125 C 22.429688 8.953125 26.402344 12.929688 26.402344 17.816406 C 26.402344 22.699219 22.429688 26.675781 17.542969 26.675781 Z M 17.542969 10.128906 C 13.304688 10.128906 9.859375 13.578125 9.859375 17.816406 C 9.859375 22.050781 13.304688 25.5 17.542969 25.5 C 21.78125 25.5 25.226562 22.050781 25.226562 17.816406 C 25.226562 13.578125 21.78125 10.128906 17.542969 10.128906 Z M 17.542969 10.128906 " fill-opacity="1" fill-rule="nonzero"/><path fill="#ffffff" d="M 44.941406 30.667969 L 44.214844 29.742188 L 44.261719 29.707031 C 45.015625 29.113281 45.667969 28.601562 45.667969 26.582031 L 45.667969 24.992188 C 45.667969 24.175781 45.003906 23.515625 44.191406 23.515625 L 34.800781 23.515625 C 33.988281 23.515625 33.324219 24.175781 33.324219 24.992188 L 33.324219 26.582031 C 33.324219 28.601562 33.976562 29.113281 34.730469 29.707031 L 34.777344 29.742188 L 34.050781 30.667969 L 34.003906 30.632812 C 33.175781 29.984375 32.148438 29.175781 32.148438 26.582031 L 32.148438 24.992188 C 32.148438 23.527344 33.339844 22.339844 34.800781 22.339844 L 44.191406 22.339844 C 45.65625 22.339844 46.847656 23.527344 46.847656 24.992188 L 46.847656 26.582031 C 46.847656 29.175781 45.816406 29.984375 44.988281 30.632812 L 44.945312 30.667969 Z M 44.941406 30.667969 " fill-opacity="1" fill-rule="nonzero"/><path fill="#ffffff" d="M 42.5625 29.824219 L 41.382812 29.824219 L 41.382812 22.925781 L 42.5625 22.925781 Z M 37.609375 29.824219 L 36.433594 29.824219 L 36.433594 22.925781 L 37.609375 22.925781 Z M 37.609375 29.824219 " fill-opacity="1" fill-rule="nonzero"/><path fill="#ffffff" d="M 39.496094 50.6875 C 38.765625 50.6875 38.0625 50.464844 37.464844 50.046875 C 37.007812 49.726562 36.539062 49.597656 35.984375 49.648438 C 35.261719 49.714844 34.542969 49.554688 33.902344 49.1875 C 33.265625 48.820312 32.769531 48.277344 32.464844 47.617188 C 32.226562 47.109375 31.882812 46.765625 31.378906 46.53125 C 30.722656 46.226562 30.175781 45.730469 29.808594 45.09375 C 29.441406 44.457031 29.28125 43.738281 29.34375 43.011719 C 29.394531 42.457031 29.265625 41.984375 28.949219 41.527344 C 28.53125 40.929688 28.308594 40.226562 28.308594 39.496094 C 28.308594 38.765625 28.53125 38.0625 28.949219 37.464844 C 29.269531 37.011719 29.394531 36.539062 29.34375 35.984375 C 29.28125 35.257812 29.441406 34.539062 29.808594 33.90625 C 30.175781 33.265625 30.71875 32.769531 31.378906 32.460938 C 31.882812 32.226562 32.226562 31.882812 32.460938 31.378906 C 32.769531 30.71875 33.269531 30.175781 33.902344 29.808594 C 34.539062 29.441406 35.257812 29.28125 35.984375 29.347656 C 36.539062 29.398438 37.007812 29.269531 37.460938 28.949219 C 37.460938 28.949219 37.460938 28.949219 37.464844 28.949219 C 38.0625 28.53125 38.765625 28.308594 39.496094 28.308594 C 40.230469 28.308594 40.929688 28.53125 41.527344 28.949219 C 41.984375 29.269531 42.453125 29.398438 43.011719 29.347656 C 43.734375 29.28125 44.453125 29.441406 45.089844 29.808594 C 45.722656 30.171875 46.21875 30.714844 46.53125 31.378906 C 46.765625 31.886719 47.113281 32.230469 47.613281 32.460938 C 48.277344 32.773438 48.820312 33.269531 49.1875 33.90625 C 49.550781 34.53125 49.710938 35.25 49.648438 35.980469 C 49.597656 36.539062 49.726562 37.011719 50.042969 37.464844 C 50.464844 38.066406 50.6875 38.769531 50.6875 39.496094 C 50.6875 40.226562 50.464844 40.929688 50.042969 41.527344 C 49.726562 41.984375 49.597656 42.457031 49.648438 43.011719 C 49.710938 43.742188 49.550781 44.460938 49.183594 45.09375 C 48.820312 45.726562 48.277344 46.222656 47.617188 46.53125 C 47.113281 46.765625 46.765625 47.109375 46.527344 47.617188 C 46.222656 48.277344 45.722656 48.820312 45.089844 49.1875 C 44.453125 49.554688 43.734375 49.714844 43.011719 49.648438 C 42.453125 49.597656 41.984375 49.726562 41.53125 50.046875 C 40.929688 50.464844 40.226562 50.6875 39.496094 50.6875 Z M 36.203125 48.460938 C 36.902344 48.460938 37.554688 48.667969 38.140625 49.082031 C 38.539062 49.359375 39.007812 49.507812 39.496094 49.507812 C 39.988281 49.507812 40.453125 49.359375 40.855469 49.082031 C 41.527344 48.605469 42.289062 48.402344 43.117188 48.476562 C 43.597656 48.519531 44.078125 48.414062 44.503906 48.167969 C 44.925781 47.925781 45.257812 47.5625 45.460938 47.117188 C 45.816406 46.367188 46.375 45.808594 47.121094 45.464844 C 47.558594 45.257812 47.921875 44.925781 48.164062 44.503906 C 48.410156 44.082031 48.515625 43.601562 48.476562 43.113281 C 48.402344 42.28125 48.597656 41.542969 49.078125 40.855469 C 49.359375 40.453125 49.507812 39.984375 49.507812 39.496094 C 49.507812 39.011719 49.359375 38.542969 49.078125 38.140625 C 48.605469 37.464844 48.402344 36.703125 48.476562 35.878906 C 48.515625 35.394531 48.410156 34.914062 48.167969 34.496094 C 47.921875 34.066406 47.5625 33.734375 47.117188 33.53125 C 46.375 33.183594 45.816406 32.628906 45.464844 31.878906 C 45.257812 31.433594 44.925781 31.070312 44.503906 30.828125 C 44.078125 30.582031 43.597656 30.476562 43.117188 30.519531 C 42.289062 30.59375 41.527344 30.386719 40.851562 29.910156 C 40.457031 29.632812 39.984375 29.488281 39.496094 29.488281 C 39.007812 29.488281 38.539062 29.632812 38.140625 29.914062 C 37.464844 30.386719 36.703125 30.59375 35.878906 30.519531 C 35.394531 30.476562 34.917969 30.582031 34.492188 30.828125 C 34.066406 31.074219 33.734375 31.433594 33.53125 31.875 C 33.183594 32.625 32.625 33.183594 31.875 33.53125 C 31.4375 33.734375 31.074219 34.066406 30.828125 34.492188 C 30.582031 34.917969 30.476562 35.394531 30.515625 35.882812 C 30.589844 36.703125 30.386719 37.464844 29.914062 38.140625 C 29.632812 38.539062 29.488281 39.007812 29.488281 39.496094 C 29.488281 39.984375 29.632812 40.453125 29.914062 40.855469 C 30.394531 41.542969 30.589844 42.28125 30.515625 43.113281 C 30.476562 43.597656 30.582031 44.078125 30.828125 44.503906 C 31.074219 44.929688 31.4375 45.261719 31.875 45.464844 C 32.625 45.8125 33.183594 46.371094 33.53125 47.121094 C 33.734375 47.558594 34.066406 47.921875 34.492188 48.167969 C 34.917969 48.414062 35.394531 48.519531 35.878906 48.476562 C 35.988281 48.464844 36.097656 48.460938 36.203125 48.460938 Z M 36.203125 48.460938 " fill-opacity="1" fill-rule="nonzero"/><path fill="#ffffff" d="M 39.496094 46.367188 C 35.707031 46.367188 32.625 43.285156 32.625 39.496094 C 32.625 35.710938 35.707031 32.628906 39.496094 32.628906 C 43.289062 32.628906 46.367188 35.710938 46.367188 39.496094 C 46.367188 43.285156 43.285156 46.367188 39.496094 46.367188 Z M 39.496094 33.804688 C 36.355469 33.804688 33.800781 36.359375 33.800781 39.496094 C 33.800781 42.636719 36.355469 45.191406 39.496094 45.191406 C 42.636719 45.191406 45.191406 42.636719 45.191406 39.496094 C 45.191406 36.359375 42.636719 33.804688 39.496094 33.804688 Z M 39.496094 33.804688 " fill-opacity="1" fill-rule="nonzero"/><path fill="#ffffff" d="M 37.402344 20.988281 L 34.335938 20.988281 C 32.984375 20.988281 32.28125 19.949219 32.28125 18.921875 C 32.28125 18.480469 32.40625 18.0625 32.636719 17.71875 C 32.035156 17.332031 31.726562 16.644531 31.726562 15.964844 C 31.726562 15.539062 31.84375 15.113281 32.082031 14.757812 C 31.476562 14.375 31.167969 13.6875 31.167969 13.007812 C 31.167969 12.566406 31.292969 12.148438 31.523438 11.804688 C 30.921875 11.421875 30.609375 10.734375 30.609375 10.050781 C 30.609375 9.519531 30.792969 9.019531 31.125 8.644531 C 31.5 8.21875 32.046875 7.984375 32.667969 7.984375 L 34.90625 7.984375 C 35.09375 7.984375 35.199219 7.878906 35.246094 7.820312 C 35.296875 7.757812 35.367188 7.628906 35.320312 7.449219 C 35.269531 7.261719 35.21875 7.070312 35.164062 6.882812 C 34.871094 5.832031 34.566406 4.742188 34.871094 3.628906 C 35.257812 2.222656 36.421875 1.226562 37.578125 1.3125 C 38.492188 1.382812 39.121094 2.097656 39.257812 3.226562 C 39.421875 4.613281 39.933594 5.992188 40.445312 7.289062 C 40.75 8.0625 42.464844 8.980469 43.609375 8.980469 C 43.933594 8.980469 44.195312 9.246094 44.195312 9.570312 C 44.195312 9.894531 43.933594 10.160156 43.609375 10.160156 C 42.113281 10.160156 39.882812 9.070312 39.351562 7.71875 C 38.8125 6.355469 38.269531 4.894531 38.089844 3.367188 C 38.042969 2.980469 37.902344 2.519531 37.488281 2.488281 C 36.980469 2.449219 36.257812 3.023438 36.007812 3.9375 C 35.789062 4.738281 36.035156 5.625 36.300781 6.5625 C 36.355469 6.761719 36.410156 6.957031 36.460938 7.152344 C 36.585938 7.636719 36.484375 8.144531 36.179688 8.539062 C 35.875 8.933594 35.410156 9.160156 34.90625 9.160156 L 32.667969 9.160156 C 32.019531 9.160156 31.789062 9.640625 31.789062 10.050781 C 31.789062 10.460938 32.019531 10.941406 32.667969 10.941406 L 33.222656 10.941406 C 33.550781 10.941406 33.8125 11.203125 33.8125 11.53125 C 33.8125 11.855469 33.550781 12.117188 33.222656 12.117188 C 32.574219 12.117188 32.34375 12.597656 32.34375 13.007812 C 32.34375 13.417969 32.574219 13.894531 33.222656 13.894531 L 33.78125 13.894531 C 34.105469 13.894531 34.367188 14.160156 34.367188 14.484375 C 34.367188 14.808594 34.105469 15.074219 33.78125 15.074219 C 33.132812 15.074219 32.902344 15.554688 32.902344 15.964844 C 32.902344 16.375 33.132812 16.851562 33.78125 16.851562 L 34.335938 16.851562 C 34.660156 16.851562 34.925781 17.117188 34.925781 17.441406 C 34.925781 17.765625 34.660156 18.03125 34.335938 18.03125 C 33.6875 18.03125 33.457031 18.511719 33.457031 18.921875 C 33.457031 19.332031 33.6875 19.8125 34.335938 19.8125 L 37.402344 19.8125 C 39.101562 19.8125 40.066406 19.488281 40.917969 19.203125 C 41.761719 18.925781 42.554688 18.660156 43.707031 18.863281 C 44.03125 18.917969 44.242188 19.222656 44.1875 19.542969 C 44.132812 19.863281 43.828125 20.078125 43.507812 20.023438 C 42.644531 19.871094 42.078125 20.058594 41.292969 20.320312 C 40.398438 20.617188 39.289062 20.988281 37.402344 20.988281 Z M 37.402344 20.988281 " fill-opacity="1" fill-rule="nonzero"/><path fill="#ffffff" d="M 34.210938 12.117188 L 33.222656 12.117188 C 32.898438 12.117188 32.636719 11.855469 32.636719 11.53125 C 32.636719 11.207031 32.898438 10.941406 33.222656 10.941406 L 34.210938 10.941406 C 34.535156 10.941406 34.800781 11.207031 34.800781 11.53125 C 34.800781 11.855469 34.535156 12.117188 34.210938 12.117188 Z M 34.210938 12.117188 " fill-opacity="1" fill-rule="nonzero"/><path fill="#ffffff" d="M 46.976562 20.953125 L 44.425781 20.953125 C 43.648438 20.953125 43.019531 20.324219 43.019531 19.546875 L 43.019531 9.515625 C 43.019531 8.742188 43.648438 8.113281 44.425781 8.113281 L 46.976562 8.113281 C 47.75 8.113281 48.382812 8.742188 48.382812 9.515625 L 48.382812 19.546875 C 48.382812 20.324219 47.75 20.953125 46.976562 20.953125 Z M 44.425781 9.289062 C 44.296875 9.289062 44.195312 9.390625 44.195312 9.515625 L 44.195312 19.546875 C 44.195312 19.671875 44.296875 19.773438 44.425781 19.773438 L 46.976562 19.773438 C 47.101562 19.773438 47.203125 19.671875 47.203125 19.546875 L 47.203125 9.515625 C 47.203125 9.390625 47.101562 9.289062 46.976562 9.289062 Z M 44.425781 9.289062 " fill-opacity="1" fill-rule="nonzero"/><path fill="#ffffff" d="M 34.636719 15.074219 L 33.648438 15.074219 C 33.324219 15.074219 33.058594 14.808594 33.058594 14.484375 C 33.058594 14.160156 33.324219 13.894531 33.648438 13.894531 L 34.636719 13.894531 C 34.964844 13.894531 35.226562 14.160156 35.226562 14.484375 C 35.226562 14.808594 34.964844 15.074219 34.636719 15.074219 Z M 34.636719 15.074219 " fill-opacity="1" fill-rule="nonzero"/><path fill="#ffffff" d="M 35.066406 18.03125 L 34.078125 18.03125 C 33.75 18.03125 33.488281 17.769531 33.488281 17.441406 C 33.488281 17.117188 33.75 16.855469 34.078125 16.855469 L 35.066406 16.855469 C 35.390625 16.855469 35.65625 17.117188 35.65625 17.441406 C 35.65625 17.769531 35.390625 18.03125 35.066406 18.03125 Z M 35.066406 18.03125 " fill-opacity="1" fill-rule="nonzero"/><path fill="#ffffff" d="M 38.257812 42.144531 C 38.234375 42.144531 38.207031 42.140625 38.183594 42.140625 C 38 42.113281 37.839844 42.007812 37.75 41.847656 L 36.109375 39.007812 C 35.949219 38.726562 36.042969 38.367188 36.328125 38.203125 C 36.609375 38.042969 36.96875 38.136719 37.128906 38.421875 L 38.386719 40.597656 L 41.957031 37.023438 C 42.1875 36.792969 42.5625 36.792969 42.789062 37.023438 C 43.019531 37.253906 43.019531 37.625 42.789062 37.855469 L 38.675781 41.972656 C 38.5625 42.082031 38.414062 42.144531 38.257812 42.144531 Z M 38.257812 42.144531 " fill-opacity="1" fill-rule="nonzero"/></svg>