<svg xmlns="http://www.w3.org/2000/svg" xmlns:xlink="http://www.w3.org/1999/xlink" width="70" zoomAndPan="magnify" viewBox="0 0 52.5 52.499999" height="70" preserveAspectRatio="xMidYMid meet" version="1.0"><path fill="#ffffff" d="M 20.066406 46.789062 C 19.929688 46.789062 19.789062 46.742188 19.679688 46.644531 C 19.433594 46.429688 19.40625 46.054688 19.621094 45.8125 L 20.304688 45.023438 C 21.152344 44.050781 22.277344 43.539062 23.566406 43.539062 L 36.101562 43.539062 C 38.183594 43.539062 39.96875 42.597656 41.261719 40.8125 L 48.15625 31.304688 C 48.695312 30.5625 48.226562 29.863281 47.863281 29.566406 C 47.425781 29.207031 46.714844 29.007812 46.152344 29.613281 L 39.25 37.066406 C 39.03125 37.308594 38.660156 37.320312 38.417969 37.105469 C 38.179688 36.886719 38.160156 36.515625 38.375 36.273438 C 38.921875 35.660156 39.046875 34.847656 38.710938 34.097656 C 38.453125 33.515625 37.832031 32.894531 36.863281 32.894531 L 28.691406 32.894531 C 28.585938 32.894531 28.480469 32.867188 28.394531 32.816406 L 27.257812 32.160156 C 26.3125 31.609375 25.394531 31.363281 24.289062 31.363281 L 20.597656 31.363281 C 18.972656 31.363281 17.597656 31.9375 16.394531 33.109375 L 11.621094 37.765625 C 11.390625 37.996094 11.011719 37.988281 10.789062 37.757812 C 10.558594 37.523438 10.5625 37.148438 10.796875 36.921875 L 15.566406 32.261719 C 16.980469 30.882812 18.671875 30.179688 20.597656 30.179688 L 24.289062 30.179688 C 25.59375 30.179688 26.726562 30.484375 27.851562 31.136719 L 28.847656 31.710938 L 36.863281 31.710938 C 38.144531 31.710938 39.265625 32.441406 39.789062 33.617188 C 39.914062 33.894531 40 34.183594 40.039062 34.46875 L 45.28125 28.8125 C 46.328125 27.683594 47.742188 27.9375 48.613281 28.65625 C 49.523438 29.402344 49.988281 30.792969 49.113281 31.996094 L 42.214844 41.511719 C 40.710938 43.582031 38.539062 44.722656 36.097656 44.722656 L 23.5625 44.722656 C 22.617188 44.722656 21.816406 45.085938 21.195312 45.800781 L 20.511719 46.585938 C 20.394531 46.71875 20.230469 46.789062 20.066406 46.789062 Z M 20.066406 46.789062 " fill-opacity="1" fill-rule="evenodd"/><path fill="#ffffff" d="M 36.863281 38.132812 L 29.199219 38.132812 C 28.871094 38.132812 28.609375 37.867188 28.609375 37.542969 C 28.609375 37.214844 28.871094 36.949219 29.199219 36.949219 L 36.863281 36.949219 C 37.4375 36.949219 37.988281 36.703125 38.378906 36.269531 C 38.59375 36.027344 38.96875 36.007812 39.210938 36.226562 C 39.453125 36.441406 39.476562 36.816406 39.257812 37.058594 C 38.644531 37.742188 37.773438 38.132812 36.863281 38.132812 Z M 36.863281 38.132812 " fill-opacity="1" fill-rule="evenodd"/><path fill="#ffffff" d="M 17.566406 50.804688 C 17.070312 50.804688 16.574219 50.617188 16.195312 50.238281 L 16.191406 50.238281 L 7.191406 41.234375 C 6.433594 40.476562 6.433594 39.246094 7.191406 38.492188 L 8.820312 36.863281 C 9.578125 36.105469 10.808594 36.105469 11.566406 36.863281 L 20.566406 45.867188 C 21.328125 46.621094 21.328125 47.851562 20.566406 48.609375 L 18.941406 50.238281 C 18.5625 50.617188 18.066406 50.804688 17.566406 50.804688 Z M 17.03125 49.402344 C 17.324219 49.699219 17.808594 49.699219 18.101562 49.402344 L 19.730469 47.773438 C 19.875 47.628906 19.953125 47.441406 19.953125 47.238281 C 19.953125 47.03125 19.875 46.84375 19.730469 46.699219 L 10.730469 37.699219 C 10.585938 37.554688 10.398438 37.476562 10.191406 37.476562 C 9.992188 37.476562 9.800781 37.554688 9.65625 37.699219 L 8.027344 39.324219 C 7.734375 39.621094 7.734375 40.101562 8.027344 40.398438 Z M 17.03125 49.402344 " fill-opacity="1" fill-rule="evenodd"/><path fill="#ffffff" d="M 34.113281 25.578125 L 20.738281 25.578125 C 19.511719 25.578125 18.515625 24.574219 18.515625 23.347656 L 18.515625 3.417969 C 18.515625 2.1875 19.511719 1.1875 20.738281 1.1875 L 40.671875 1.1875 C 41.898438 1.1875 42.902344 2.1875 42.902344 3.417969 L 42.902344 14.148438 L 41.714844 14.148438 L 41.714844 3.417969 C 41.714844 2.839844 41.25 2.371094 40.675781 2.371094 L 20.738281 2.371094 C 20.164062 2.371094 19.699219 2.839844 19.699219 3.417969 L 19.699219 23.347656 C 19.699219 23.921875 20.164062 24.394531 20.738281 24.394531 L 34.113281 24.394531 Z M 34.113281 25.578125 " fill-opacity="1" fill-rule="evenodd"/><path fill="#ffffff" d="M 33.894531 11.472656 L 27.515625 11.472656 C 27.1875 11.472656 26.921875 11.207031 26.921875 10.878906 L 26.921875 1.78125 L 28.105469 1.78125 L 28.105469 10.289062 L 33.304688 10.289062 L 33.304688 1.78125 L 34.488281 1.78125 L 34.488281 10.878906 C 34.488281 11.207031 34.222656 11.472656 33.894531 11.472656 Z M 33.894531 11.472656 " fill-opacity="1" fill-rule="evenodd"/><path fill="#ffffff" d="M 40.648438 29.449219 C 36.21875 29.449219 32.609375 25.84375 32.609375 21.410156 C 32.609375 16.980469 36.21875 13.371094 40.648438 13.371094 C 45.078125 13.371094 48.691406 16.976562 48.691406 21.410156 C 48.691406 25.84375 45.082031 29.449219 40.648438 29.449219 Z M 40.648438 14.554688 C 36.867188 14.554688 33.792969 17.628906 33.792969 21.410156 C 33.792969 25.191406 36.867188 28.265625 40.648438 28.265625 C 44.429688 28.265625 47.507812 25.191406 47.507812 21.410156 C 47.507812 17.628906 44.429688 14.554688 40.648438 14.554688 Z M 40.648438 14.554688 " fill-opacity="1" fill-rule="evenodd"/><path fill="#ffffff" d="M 40.648438 26.976562 C 37.578125 26.976562 35.085938 24.476562 35.085938 21.410156 C 35.085938 18.34375 37.582031 15.847656 40.648438 15.847656 C 43.714844 15.847656 46.214844 18.34375 46.214844 21.410156 C 46.214844 24.476562 43.71875 26.976562 40.648438 26.976562 Z M 40.648438 17.03125 C 38.230469 17.03125 36.265625 18.992188 36.265625 21.410156 C 36.265625 23.828125 38.230469 25.792969 40.648438 25.792969 C 43.066406 25.792969 45.03125 23.828125 45.03125 21.410156 C 45.03125 18.992188 43.066406 17.03125 40.648438 17.03125 Z M 40.648438 17.03125 " fill-opacity="1" fill-rule="evenodd"/><path fill="#ffffff" d="M 39.675781 23.621094 C 39.652344 23.621094 39.628906 23.617188 39.601562 23.613281 C 39.417969 23.59375 39.257812 23.484375 39.167969 23.324219 L 37.875 21.089844 C 37.710938 20.808594 37.808594 20.445312 38.09375 20.28125 C 38.375 20.117188 38.738281 20.214844 38.898438 20.496094 L 39.804688 22.066406 L 42.496094 19.375 C 42.726562 19.140625 43.101562 19.140625 43.332031 19.375 C 43.566406 19.605469 43.566406 19.980469 43.332031 20.210938 L 40.097656 23.449219 C 39.984375 23.558594 39.832031 23.621094 39.675781 23.621094 Z M 39.675781 23.621094 " fill-opacity="1" fill-rule="evenodd"/><path fill="#ffffff" d="M 16.332031 22.214844 L 10.203125 22.214844 C 9.878906 22.214844 9.613281 21.949219 9.613281 21.621094 C 9.613281 21.296875 9.878906 21.03125 10.203125 21.03125 L 16.332031 21.03125 C 16.660156 21.03125 16.921875 21.296875 16.921875 21.621094 C 16.921875 21.949219 16.660156 22.214844 16.332031 22.214844 Z M 16.332031 18.09375 L 6.144531 18.09375 C 5.816406 18.09375 5.550781 17.832031 5.550781 17.503906 C 5.550781 17.175781 5.816406 16.914062 6.144531 16.914062 L 16.332031 16.914062 C 16.660156 16.914062 16.921875 17.175781 16.921875 17.503906 C 16.921875 17.832031 16.660156 18.09375 16.332031 18.09375 Z M 16.332031 13.972656 L 3.003906 13.972656 C 2.679688 13.972656 2.414062 13.707031 2.414062 13.382812 C 2.414062 13.054688 2.679688 12.789062 3.003906 12.789062 L 16.332031 12.789062 C 16.660156 12.789062 16.921875 13.054688 16.921875 13.382812 C 16.921875 13.707031 16.660156 13.972656 16.332031 13.972656 Z M 16.332031 9.851562 L 6.144531 9.851562 C 5.816406 9.851562 5.550781 9.585938 5.550781 9.261719 C 5.550781 8.933594 5.816406 8.667969 6.144531 8.667969 L 16.332031 8.667969 C 16.660156 8.667969 16.921875 8.933594 16.921875 9.261719 C 16.921875 9.585938 16.660156 9.851562 16.332031 9.851562 Z M 16.332031 5.734375 L 10.203125 5.734375 C 9.878906 5.734375 9.613281 5.46875 9.613281 5.140625 C 9.613281 4.816406 9.878906 4.550781 10.203125 4.550781 L 16.332031 4.550781 C 16.660156 4.550781 16.921875 4.816406 16.921875 5.140625 C 16.921875 5.46875 16.660156 5.734375 16.332031 5.734375 Z M 16.332031 5.734375 " fill-opacity="1" fill-rule="evenodd"/></svg>