<svg xmlns="http://www.w3.org/2000/svg" xmlns:xlink="http://www.w3.org/1999/xlink" width="70" zoomAndPan="magnify" viewBox="0 0 52.5 52.499999" height="70" preserveAspectRatio="xMidYMid meet" version="1.0"><defs><clipPath id="caf221a90e"><path d="M 1.046875 1.046875 L 50.820312 1.046875 L 50.820312 50.820312 L 1.046875 50.820312 Z M 1.046875 1.046875 " clip-rule="nonzero"/></clipPath></defs><path fill="#ffffff" d="M 30.910156 37.796875 C 30.835938 37.796875 30.765625 37.785156 30.695312 37.757812 C 30.394531 37.640625 30.242188 37.300781 30.363281 37 C 31.011719 35.355469 31.824219 34.085938 32.859375 32.472656 C 33.089844 32.117188 33.324219 31.746094 33.574219 31.347656 C 34.476562 29.925781 34.949219 28.277344 34.949219 26.582031 C 34.949219 21.644531 30.929688 17.625 25.996094 17.625 C 21.0625 17.625 17.046875 21.644531 17.046875 26.582031 C 17.046875 28.277344 17.519531 29.925781 18.417969 31.347656 C 18.664062 31.738281 18.898438 32.105469 19.121094 32.457031 C 20.160156 34.074219 20.980469 35.351562 21.625 37 C 21.746094 37.300781 21.597656 37.640625 21.296875 37.757812 C 20.996094 37.878906 20.660156 37.730469 20.539062 37.429688 C 19.933594 35.886719 19.140625 34.652344 18.140625 33.089844 C 17.910156 32.738281 17.675781 32.367188 17.425781 31.972656 C 16.410156 30.367188 15.875 28.5 15.875 26.582031 C 15.875 21 20.414062 16.457031 25.996094 16.457031 C 31.582031 16.457031 36.121094 21 36.121094 26.582031 C 36.121094 28.5 35.582031 30.367188 34.566406 31.976562 C 34.320312 32.371094 34.078125 32.746094 33.847656 33.105469 C 32.847656 34.664062 32.054688 35.890625 31.449219 37.429688 C 31.359375 37.660156 31.140625 37.796875 30.910156 37.796875 Z M 30.910156 37.796875 " fill-opacity="1" fill-rule="nonzero"/><path fill="#ffffff" d="M 29.917969 29.140625 L 29.917969 27.96875 C 30.722656 27.96875 31.375 27.316406 31.375 26.507812 C 31.375 25.703125 30.722656 25.054688 29.917969 25.054688 C 29.113281 25.054688 28.457031 25.707031 28.457031 26.507812 L 27.289062 26.507812 C 27.289062 25.0625 28.464844 23.878906 29.917969 23.878906 C 31.371094 23.878906 32.546875 25.0625 32.546875 26.507812 C 32.546875 27.957031 31.367188 29.140625 29.917969 29.140625 Z M 22.078125 29.140625 L 23.539062 29.140625 L 23.539062 36.996094 L 24.710938 36.996094 L 24.710938 29.140625 L 27.289062 29.140625 L 27.289062 36.996094 L 28.457031 36.996094 L 28.457031 29.140625 L 29.914062 29.140625 L 29.914062 27.96875 L 28.457031 27.96875 L 28.457031 26.507812 L 27.289062 26.507812 L 27.289062 27.96875 L 24.710938 27.96875 L 24.710938 26.507812 L 23.539062 26.507812 L 23.539062 27.96875 L 22.078125 27.96875 C 21.273438 27.96875 20.621094 27.316406 20.621094 26.507812 C 20.621094 25.703125 21.273438 25.054688 22.078125 25.054688 C 22.878906 25.054688 23.539062 25.707031 23.539062 26.507812 L 24.707031 26.507812 C 24.707031 25.0625 23.53125 23.878906 22.078125 23.878906 C 20.625 23.878906 19.445312 25.0625 19.445312 26.507812 C 19.445312 27.957031 20.628906 29.140625 22.078125 29.140625 Z M 22.078125 29.140625 " fill-opacity="1" fill-rule="nonzero"/><g clip-path="url(#caf221a90e)"><path fill="#ffffff" d="M 42.949219 43.535156 C 42.800781 43.535156 42.652344 43.480469 42.539062 43.367188 C 42.304688 43.140625 42.304688 42.765625 42.539062 42.539062 C 46.953125 38.121094 49.382812 32.246094 49.382812 25.996094 C 49.382812 19.75 46.953125 13.875 42.539062 9.457031 C 34.5 1.417969 21.914062 0.304688 12.617188 6.804688 C 12.351562 6.988281 11.988281 6.925781 11.796875 6.660156 C 11.617188 6.394531 11.683594 6.03125 11.945312 5.84375 C 16.617188 2.578125 22.332031 1.042969 28.039062 1.519531 C 33.820312 1.996094 39.261719 4.523438 43.363281 8.628906 C 48.003906 13.269531 50.558594 19.4375 50.558594 25.996094 C 50.558594 32.558594 48.003906 38.726562 43.363281 43.367188 C 43.25 43.480469 43.101562 43.535156 42.949219 43.535156 Z M 25.992188 50.558594 C 25.382812 50.558594 24.777344 50.539062 24.167969 50.492188 C 18.3125 50.058594 12.789062 47.527344 8.625 43.367188 C 3.992188 38.726562 1.433594 32.558594 1.433594 25.996094 C 1.433594 19.4375 3.992188 13.269531 8.625 8.628906 L 8.675781 8.582031 C 8.714844 8.542969 8.753906 8.5 8.792969 8.464844 C 9.03125 8.242188 9.398438 8.253906 9.621094 8.488281 C 9.84375 8.722656 9.835938 9.09375 9.597656 9.3125 C 9.570312 9.34375 9.542969 9.371094 9.511719 9.402344 L 9.457031 9.457031 C 5.039062 13.875 2.605469 19.75 2.605469 25.996094 C 2.605469 32.246094 5.039062 38.121094 9.457031 42.539062 C 17.644531 50.726562 30.375 51.738281 39.730469 44.9375 C 39.992188 44.746094 40.359375 44.804688 40.550781 45.066406 C 40.738281 45.328125 40.679688 45.695312 40.421875 45.886719 C 36.230469 48.929688 31.167969 50.558594 25.992188 50.558594 Z M 25.992188 50.558594 " fill-opacity="1" fill-rule="nonzero"/></g><path fill="#ffffff" d="M 8.199219 13.230469 C 8.144531 13.230469 8.097656 13.226562 8.046875 13.210938 C 7.734375 13.128906 7.546875 12.808594 7.628906 12.496094 L 8.324219 9.882812 L 5.828125 10.914062 C 5.53125 11.039062 5.183594 10.898438 5.0625 10.597656 C 4.9375 10.300781 5.078125 9.957031 5.378906 9.835938 L 8.972656 8.347656 C 9.179688 8.261719 9.414062 8.300781 9.582031 8.449219 C 9.75 8.59375 9.824219 8.824219 9.765625 9.039062 L 8.761719 12.796875 C 8.691406 13.058594 8.457031 13.230469 8.199219 13.230469 Z M 8.199219 13.230469 " fill-opacity="1" fill-rule="nonzero"/><path fill="#ffffff" d="M 42.949219 43.535156 C 42.808594 43.535156 42.671875 43.488281 42.566406 43.394531 C 42.398438 43.246094 42.328125 43.015625 42.386719 42.800781 L 43.386719 39.042969 C 43.46875 38.730469 43.789062 38.542969 44.097656 38.628906 C 44.417969 38.710938 44.597656 39.03125 44.515625 39.34375 L 43.820312 41.960938 L 46.324219 40.925781 C 46.621094 40.800781 46.960938 40.941406 47.089844 41.242188 C 47.210938 41.542969 47.066406 41.882812 46.769531 42.007812 L 43.171875 43.492188 C 43.101562 43.523438 43.03125 43.535156 42.949219 43.535156 Z M 42.949219 43.535156 " fill-opacity="1" fill-rule="nonzero"/><path fill="#ffffff" d="M 15.667969 41.621094 C 15.179688 41.621094 14.699219 41.433594 14.332031 41.066406 L 10.929688 37.65625 C 10.570312 37.304688 10.378906 36.832031 10.378906 36.324219 C 10.378906 35.824219 10.570312 35.351562 10.929688 34.996094 L 11.894531 34.03125 C 11.21875 32.855469 10.695312 31.601562 10.335938 30.289062 L 8.976562 30.289062 C 7.941406 30.289062 7.097656 29.445312 7.097656 28.40625 L 7.097656 23.585938 C 7.097656 22.546875 7.941406 21.703125 8.976562 21.703125 L 10.335938 21.703125 C 10.695312 20.394531 11.21875 19.140625 11.894531 17.960938 L 10.929688 16.996094 C 10.195312 16.265625 10.195312 15.066406 10.929688 14.332031 L 14.332031 10.925781 C 15.066406 10.191406 16.265625 10.191406 17 10.925781 L 17.960938 11.886719 C 19.140625 11.214844 20.398438 10.699219 21.699219 10.339844 L 21.699219 8.976562 C 21.699219 7.9375 22.550781 7.09375 23.585938 7.09375 L 28.40625 7.09375 C 29.445312 7.09375 30.289062 7.9375 30.289062 8.976562 L 30.289062 10.339844 C 31.597656 10.695312 32.851562 11.214844 34.027344 11.886719 L 34.996094 10.925781 C 35.726562 10.191406 36.925781 10.191406 37.65625 10.925781 L 41.070312 14.332031 C 41.800781 15.066406 41.800781 16.265625 41.070312 16.996094 L 40.101562 17.960938 C 40.777344 19.144531 41.296875 20.398438 41.65625 21.703125 L 43.015625 21.703125 C 44.050781 21.703125 44.902344 22.546875 44.902344 23.585938 L 44.902344 28.40625 C 44.902344 29.445312 44.050781 30.289062 43.015625 30.289062 L 41.65625 30.289062 C 41.296875 31.59375 40.777344 32.851562 40.101562 34.03125 L 41.070312 34.996094 C 41.421875 35.351562 41.617188 35.824219 41.617188 36.324219 C 41.617188 36.832031 41.421875 37.304688 41.070312 37.65625 L 37.65625 41.066406 C 36.925781 41.800781 35.726562 41.800781 34.996094 41.066406 L 34.027344 40.101562 C 33.09375 40.636719 32.109375 41.078125 31.09375 41.410156 C 30.789062 41.511719 30.453125 41.34375 30.355469 41.039062 C 30.253906 40.730469 30.421875 40.402344 30.726562 40.296875 C 31.800781 39.945312 32.839844 39.464844 33.820312 38.867188 C 34.050781 38.726562 34.347656 38.761719 34.535156 38.953125 L 35.820312 40.238281 C 36.097656 40.515625 36.546875 40.515625 36.832031 40.238281 L 40.238281 36.832031 C 40.371094 36.695312 40.445312 36.515625 40.445312 36.324219 C 40.445312 36.136719 40.371094 35.957031 40.238281 35.824219 L 38.953125 34.539062 C 38.765625 34.347656 38.726562 34.050781 38.871094 33.820312 C 39.671875 32.496094 40.265625 31.066406 40.632812 29.566406 C 40.691406 29.300781 40.925781 29.117188 41.199219 29.117188 L 43.015625 29.117188 C 43.410156 29.117188 43.730469 28.800781 43.730469 28.40625 L 43.730469 23.585938 C 43.730469 23.195312 43.410156 22.875 43.015625 22.875 L 41.199219 22.875 C 40.925781 22.875 40.691406 22.691406 40.632812 22.425781 C 40.265625 20.929688 39.671875 19.496094 38.871094 18.171875 C 38.726562 17.941406 38.765625 17.644531 38.953125 17.457031 L 40.238281 16.167969 C 40.371094 16.035156 40.445312 15.855469 40.445312 15.664062 C 40.445312 15.472656 40.371094 15.296875 40.238281 15.160156 L 36.832031 11.753906 C 36.546875 11.476562 36.097656 11.476562 35.820312 11.753906 L 34.535156 13.039062 C 34.347656 13.226562 34.050781 13.265625 33.820312 13.125 C 32.5 12.320312 31.066406 11.726562 29.566406 11.359375 C 29.304688 11.296875 29.117188 11.0625 29.117188 10.792969 L 29.117188 8.976562 C 29.117188 8.582031 28.796875 8.261719 28.40625 8.261719 L 23.585938 8.261719 C 23.191406 8.261719 22.871094 8.582031 22.871094 8.976562 L 22.871094 10.792969 C 22.871094 11.0625 22.691406 11.296875 22.425781 11.359375 C 20.925781 11.726562 19.496094 12.320312 18.171875 13.125 C 17.941406 13.265625 17.648438 13.226562 17.457031 13.039062 L 16.167969 11.753906 C 15.894531 11.476562 15.441406 11.476562 15.164062 11.753906 L 11.753906 15.160156 C 11.617188 15.296875 11.542969 15.472656 11.542969 15.664062 C 11.542969 15.855469 11.617188 16.035156 11.753906 16.167969 L 13.042969 17.457031 C 13.230469 17.644531 13.265625 17.941406 13.125 18.171875 C 12.320312 19.496094 11.722656 20.925781 11.363281 22.425781 C 11.296875 22.691406 11.0625 22.875 10.792969 22.875 L 8.976562 22.875 C 8.582031 22.875 8.265625 23.195312 8.265625 23.585938 L 8.265625 28.40625 C 8.265625 28.800781 8.582031 29.117188 8.976562 29.117188 L 10.792969 29.117188 C 11.0625 29.117188 11.296875 29.300781 11.363281 29.566406 C 11.722656 31.070312 12.320312 32.5 13.125 33.820312 C 13.265625 34.050781 13.230469 34.347656 13.042969 34.539062 L 11.753906 35.824219 C 11.617188 35.957031 11.542969 36.136719 11.542969 36.324219 C 11.542969 36.515625 11.617188 36.695312 11.753906 36.832031 L 15.164062 40.242188 C 15.296875 40.375 15.472656 40.449219 15.667969 40.449219 C 15.859375 40.449219 16.039062 40.375 16.167969 40.238281 L 17.457031 38.953125 C 17.644531 38.761719 17.941406 38.726562 18.171875 38.867188 C 19.128906 39.449219 20.148438 39.925781 21.210938 40.277344 C 21.515625 40.382812 21.679688 40.714844 21.578125 41.023438 C 21.472656 41.328125 21.144531 41.496094 20.832031 41.390625 C 19.839844 41.054688 18.875 40.625 17.960938 40.101562 L 17 41.066406 C 16.628906 41.433594 16.148438 41.617188 15.667969 41.617188 Z M 15.667969 41.621094 " fill-opacity="1" fill-rule="nonzero"/><path fill="#ffffff" d="M 29.101562 44.898438 L 22.894531 44.898438 C 22.285156 44.898438 21.796875 44.40625 21.796875 43.800781 L 21.796875 41.609375 C 21.796875 41.289062 22.058594 41.023438 22.382812 41.023438 C 22.707031 41.023438 22.96875 41.289062 22.96875 41.609375 L 22.96875 43.726562 L 29.027344 43.726562 L 29.027344 41.609375 C 29.027344 41.289062 29.289062 41.023438 29.609375 41.023438 C 29.933594 41.023438 30.195312 41.289062 30.195312 41.609375 L 30.195312 43.800781 C 30.195312 44.40625 29.707031 44.898438 29.101562 44.898438 Z M 29.101562 44.898438 " fill-opacity="1" fill-rule="nonzero"/><path fill="#ffffff" d="M 21.671875 37.796875 L 21.671875 40.960938 C 21.671875 40.996094 21.699219 41.023438 21.730469 41.023438 L 30.261719 41.023438 C 30.292969 41.023438 30.324219 40.996094 30.324219 40.960938 L 30.324219 37.796875 Z M 30.261719 42.195312 L 21.730469 42.195312 C 21.050781 42.195312 20.496094 41.644531 20.496094 40.960938 L 20.496094 37.210938 C 20.496094 36.890625 20.757812 36.625 21.085938 36.625 L 30.910156 36.625 C 31.234375 36.625 31.492188 36.890625 31.492188 37.210938 L 31.492188 40.960938 C 31.492188 41.644531 30.941406 42.195312 30.261719 42.195312 Z M 30.261719 42.195312 " fill-opacity="1" fill-rule="nonzero"/></svg>