<svg xmlns="http://www.w3.org/2000/svg" xmlns:xlink="http://www.w3.org/1999/xlink" width="70" zoomAndPan="magnify" viewBox="0 0 38.25 38.249999" height="70" preserveAspectRatio="xMidYMid meet" version="1.0"><defs><clipPath id="80356c1bc8"><path d="M 15 16 L 36 16 L 36 37.515625 L 15 37.515625 Z M 15 16 " clip-rule="nonzero"/></clipPath><clipPath id="ca2a582d0c"><path d="M 1.035156 1.035156 L 37.515625 1.035156 L 37.515625 37.515625 L 1.035156 37.515625 Z M 1.035156 1.035156 " clip-rule="nonzero"/></clipPath><clipPath id="66c1dd1a13"><path d="M 7 7 L 37.515625 7 L 37.515625 37.515625 L 7 37.515625 Z M 7 7 " clip-rule="nonzero"/></clipPath><clipPath id="3a14723502"><path d="M 20 36 L 32 36 L 32 37.515625 L 20 37.515625 Z M 20 36 " clip-rule="nonzero"/></clipPath></defs><g clip-path="url(#80356c1bc8)"><path fill="#ffffff" d="M 30.605469 37.425781 C 30.53125 37.425781 30.460938 37.414062 30.394531 37.386719 C 30.09375 37.269531 29.945312 36.933594 30.0625 36.632812 C 30.703125 35.007812 31.507812 33.746094 32.535156 32.152344 C 32.761719 31.800781 32.996094 31.429688 33.242188 31.039062 C 34.136719 29.628906 34.601562 27.996094 34.601562 26.316406 C 34.601562 21.429688 30.625 17.453125 25.738281 17.453125 C 20.855469 17.453125 16.875 21.429688 16.875 26.316406 C 16.875 27.996094 17.34375 29.628906 18.234375 31.039062 C 18.480469 31.425781 18.710938 31.789062 18.933594 32.136719 C 19.960938 33.738281 20.773438 35 21.414062 36.632812 C 21.53125 36.933594 21.386719 37.269531 21.085938 37.386719 C 20.789062 37.503906 20.453125 37.355469 20.335938 37.058594 C 19.734375 35.53125 18.949219 34.3125 17.960938 32.761719 C 17.734375 32.414062 17.5 32.046875 17.253906 31.65625 C 16.246094 30.066406 15.71875 28.21875 15.71875 26.316406 C 15.71875 20.792969 20.210938 16.292969 25.738281 16.292969 C 31.269531 16.292969 35.761719 20.792969 35.761719 26.316406 C 35.761719 28.21875 35.230469 30.066406 34.226562 31.660156 C 33.980469 32.050781 33.742188 32.421875 33.511719 32.78125 C 32.523438 34.320312 31.738281 35.535156 31.140625 37.058594 C 31.050781 37.289062 30.832031 37.425781 30.605469 37.425781 Z M 30.605469 37.425781 " fill-opacity="1" fill-rule="nonzero"/></g><path fill="#ffffff" d="M 29.621094 28.851562 L 29.621094 27.691406 C 30.417969 27.691406 31.0625 27.046875 31.0625 26.246094 C 31.0625 25.449219 30.417969 24.804688 29.621094 24.804688 C 28.824219 24.804688 28.175781 25.449219 28.175781 26.246094 L 27.015625 26.246094 C 27.015625 24.8125 28.183594 23.640625 29.621094 23.640625 C 31.0625 23.640625 32.222656 24.8125 32.222656 26.246094 C 32.222656 27.679688 31.054688 28.851562 29.621094 28.851562 Z M 21.859375 28.851562 L 23.304688 28.851562 L 23.304688 36.632812 L 24.464844 36.632812 L 24.464844 28.851562 L 27.015625 28.851562 L 27.015625 36.632812 L 28.175781 36.632812 L 28.175781 28.851562 L 29.617188 28.851562 L 29.617188 27.691406 L 28.175781 27.691406 L 28.175781 26.246094 L 27.015625 26.246094 L 27.015625 27.691406 L 24.464844 27.691406 L 24.464844 26.246094 L 23.304688 26.246094 L 23.304688 27.691406 L 21.859375 27.691406 C 21.0625 27.691406 20.417969 27.046875 20.417969 26.246094 C 20.417969 25.449219 21.0625 24.804688 21.859375 24.804688 C 22.652344 24.804688 23.304688 25.449219 23.304688 26.246094 L 24.460938 26.246094 C 24.460938 24.8125 23.296875 23.640625 21.859375 23.640625 C 20.417969 23.640625 19.253906 24.8125 19.253906 26.246094 C 19.253906 27.679688 20.425781 28.851562 21.859375 28.851562 Z M 21.859375 28.851562 " fill-opacity="1" fill-rule="nonzero"/><g clip-path="url(#ca2a582d0c)"><path fill="#ffffff" d="M 42.523438 43.105469 C 42.378906 43.105469 42.230469 43.050781 42.117188 42.9375 C 41.886719 42.710938 41.886719 42.34375 42.117188 42.117188 C 46.488281 37.746094 48.894531 31.925781 48.894531 25.742188 C 48.894531 19.554688 46.488281 13.738281 42.117188 9.363281 C 34.160156 1.402344 21.695312 0.300781 12.492188 6.738281 C 12.230469 6.921875 11.867188 6.855469 11.683594 6.59375 C 11.5 6.332031 11.566406 5.972656 11.828125 5.789062 C 16.453125 2.554688 22.109375 1.035156 27.761719 1.503906 C 33.484375 1.976562 38.875 4.476562 42.9375 8.546875 C 47.527344 13.136719 50.058594 19.242188 50.058594 25.742188 C 50.058594 32.238281 47.527344 38.34375 42.9375 42.9375 C 42.824219 43.050781 42.675781 43.105469 42.523438 43.105469 Z M 25.734375 50.058594 C 25.132812 50.058594 24.53125 50.039062 23.929688 49.992188 C 18.128906 49.5625 12.660156 47.054688 8.542969 42.9375 C 3.953125 38.34375 1.421875 32.238281 1.421875 25.742188 C 1.421875 19.242188 3.953125 13.136719 8.542969 8.546875 L 8.589844 8.496094 C 8.628906 8.457031 8.667969 8.417969 8.707031 8.382812 C 8.941406 8.160156 9.304688 8.171875 9.527344 8.402344 C 9.746094 8.636719 9.738281 9.003906 9.503906 9.222656 C 9.472656 9.25 9.445312 9.277344 9.417969 9.308594 L 9.363281 9.363281 C 4.992188 13.738281 2.582031 19.554688 2.582031 25.742188 C 2.582031 31.929688 4.992188 37.746094 9.363281 42.117188 C 17.46875 50.222656 30.074219 51.226562 39.339844 44.492188 C 39.597656 44.304688 39.960938 44.363281 40.148438 44.621094 C 40.335938 44.882812 40.277344 45.242188 40.023438 45.429688 C 35.871094 48.445312 30.859375 50.058594 25.734375 50.058594 Z M 25.734375 50.058594 " fill-opacity="1" fill-rule="nonzero"/></g><path fill="#ffffff" d="M 8.117188 13.101562 C 8.066406 13.101562 8.019531 13.09375 7.96875 13.082031 C 7.65625 13 7.472656 12.679688 7.554688 12.371094 L 8.242188 9.785156 L 5.769531 10.808594 C 5.476562 10.929688 5.132812 10.792969 5.011719 10.492188 C 4.890625 10.199219 5.027344 9.859375 5.328125 9.738281 L 8.882812 8.265625 C 9.089844 8.179688 9.320312 8.21875 9.484375 8.363281 C 9.65625 8.507812 9.726562 8.738281 9.667969 8.949219 L 8.675781 12.671875 C 8.605469 12.929688 8.371094 13.101562 8.117188 13.101562 Z M 8.117188 13.101562 " fill-opacity="1" fill-rule="nonzero"/><g clip-path="url(#66c1dd1a13)"><path fill="#ffffff" d="M 15.511719 41.207031 C 15.03125 41.207031 14.554688 41.023438 14.191406 40.660156 L 10.820312 37.285156 C 10.464844 36.933594 10.277344 36.46875 10.277344 35.964844 C 10.277344 35.46875 10.464844 35 10.820312 34.652344 L 11.773438 33.695312 C 11.109375 32.53125 10.589844 31.289062 10.234375 29.988281 L 8.890625 29.988281 C 7.863281 29.988281 7.027344 29.15625 7.027344 28.125 L 7.027344 23.351562 C 7.027344 22.324219 7.863281 21.488281 8.890625 21.488281 L 10.234375 21.488281 C 10.589844 20.191406 11.109375 18.953125 11.773438 17.785156 L 10.820312 16.828125 C 10.09375 16.105469 10.09375 14.917969 10.820312 14.191406 L 14.191406 10.820312 C 14.917969 10.089844 16.105469 10.089844 16.832031 10.816406 L 17.785156 11.769531 C 18.949219 11.105469 20.195312 10.589844 21.484375 10.234375 L 21.484375 8.886719 C 21.484375 7.859375 22.324219 7.023438 23.351562 7.023438 L 28.125 7.023438 C 29.152344 7.023438 29.988281 7.859375 29.988281 8.886719 L 29.988281 10.234375 C 31.285156 10.589844 32.527344 11.105469 33.691406 11.769531 L 34.648438 10.816406 C 35.375 10.089844 36.558594 10.089844 37.285156 10.816406 L 40.664062 14.191406 C 41.386719 14.917969 41.386719 16.105469 40.664062 16.828125 L 39.703125 17.785156 C 40.371094 18.953125 40.886719 20.195312 41.242188 21.488281 L 42.589844 21.488281 C 43.617188 21.488281 44.457031 22.324219 44.457031 23.351562 L 44.457031 28.125 C 44.457031 29.15625 43.617188 29.988281 42.589844 29.988281 L 41.242188 29.988281 C 40.886719 31.28125 40.371094 32.523438 39.703125 33.695312 L 40.664062 34.652344 C 41.011719 35 41.203125 35.46875 41.203125 35.964844 C 41.203125 36.46875 41.011719 36.933594 40.664062 37.285156 L 37.285156 40.660156 C 36.558594 41.386719 35.375 41.386719 34.648438 40.660156 L 33.691406 39.707031 C 32.765625 40.238281 31.789062 40.671875 30.785156 41.003906 C 30.484375 41.101562 30.152344 40.9375 30.054688 40.632812 C 29.957031 40.328125 30.121094 40 30.421875 39.898438 C 31.488281 39.550781 32.511719 39.074219 33.484375 38.484375 C 33.714844 38.34375 34.007812 38.378906 34.195312 38.566406 L 35.46875 39.839844 C 35.742188 40.117188 36.1875 40.117188 36.464844 39.839844 L 39.839844 36.46875 C 39.972656 36.332031 40.046875 36.15625 40.046875 35.964844 C 40.046875 35.78125 39.972656 35.601562 39.839844 35.46875 L 38.570312 34.195312 C 38.382812 34.007812 38.34375 33.714844 38.484375 33.484375 C 39.28125 32.175781 39.867188 30.757812 40.230469 29.273438 C 40.289062 29.011719 40.523438 28.828125 40.792969 28.828125 L 42.589844 28.828125 C 42.980469 28.828125 43.296875 28.515625 43.296875 28.125 L 43.296875 23.351562 C 43.296875 22.964844 42.980469 22.648438 42.589844 22.648438 L 40.792969 22.648438 C 40.523438 22.648438 40.289062 22.464844 40.230469 22.203125 C 39.867188 20.722656 39.28125 19.304688 38.484375 17.992188 C 38.34375 17.765625 38.382812 17.472656 38.570312 17.28125 L 39.839844 16.007812 C 39.972656 15.875 40.046875 15.699219 40.046875 15.511719 C 40.046875 15.320312 39.972656 15.144531 39.839844 15.011719 L 36.464844 11.636719 C 36.1875 11.363281 35.742188 11.363281 35.46875 11.636719 L 34.195312 12.910156 C 34.007812 13.097656 33.714844 13.132812 33.484375 12.992188 C 32.175781 12.199219 30.757812 11.609375 29.273438 11.25 C 29.015625 11.183594 28.828125 10.953125 28.828125 10.683594 L 28.828125 8.886719 C 28.828125 8.5 28.511719 8.179688 28.125 8.179688 L 23.351562 8.179688 C 22.964844 8.179688 22.644531 8.5 22.644531 8.886719 L 22.644531 10.683594 C 22.644531 10.953125 22.464844 11.183594 22.207031 11.25 C 20.71875 11.609375 19.304688 12.199219 17.992188 12.992188 C 17.765625 13.132812 17.472656 13.097656 17.285156 12.910156 L 16.007812 11.636719 C 15.734375 11.363281 15.289062 11.363281 15.015625 11.636719 L 11.636719 15.011719 C 11.503906 15.144531 11.429688 15.320312 11.429688 15.511719 C 11.429688 15.699219 11.503906 15.875 11.636719 16.007812 L 12.914062 17.28125 C 13.097656 17.472656 13.132812 17.765625 12.996094 17.992188 C 12.199219 19.300781 11.609375 20.71875 11.25 22.203125 C 11.183594 22.464844 10.953125 22.648438 10.6875 22.648438 L 8.890625 22.648438 C 8.496094 22.648438 8.183594 22.964844 8.183594 23.351562 L 8.183594 28.125 C 8.183594 28.515625 8.496094 28.828125 8.890625 28.828125 L 10.6875 28.828125 C 10.953125 28.828125 11.183594 29.011719 11.25 29.273438 C 11.609375 30.761719 12.199219 32.179688 12.996094 33.484375 C 13.132812 33.710938 13.097656 34.007812 12.914062 34.195312 L 11.636719 35.46875 C 11.503906 35.601562 11.429688 35.78125 11.429688 35.964844 C 11.429688 36.15625 11.503906 36.332031 11.636719 36.46875 L 15.015625 39.84375 C 15.144531 39.972656 15.320312 40.046875 15.511719 40.046875 C 15.703125 40.046875 15.882812 39.972656 16.007812 39.839844 L 17.285156 38.566406 C 17.46875 38.378906 17.765625 38.34375 17.992188 38.484375 C 18.9375 39.058594 19.949219 39.53125 21 39.878906 C 21.304688 39.984375 21.46875 40.3125 21.363281 40.617188 C 21.257812 40.921875 20.9375 41.085938 20.628906 40.980469 C 19.644531 40.648438 18.6875 40.222656 17.785156 39.707031 L 16.832031 40.660156 C 16.464844 41.023438 15.988281 41.207031 15.511719 41.207031 Z M 15.511719 41.207031 " fill-opacity="1" fill-rule="nonzero"/></g><g clip-path="url(#3a14723502)"><path fill="#ffffff" d="M 21.457031 37.425781 L 21.457031 40.554688 C 21.457031 40.589844 21.484375 40.621094 21.515625 40.621094 L 29.964844 40.621094 C 29.992188 40.621094 30.023438 40.59375 30.023438 40.554688 L 30.023438 37.425781 Z M 29.964844 41.777344 L 21.515625 41.777344 C 20.84375 41.777344 20.292969 41.230469 20.292969 40.554688 L 20.292969 36.84375 C 20.292969 36.523438 20.554688 36.265625 20.875 36.265625 L 30.605469 36.265625 C 30.921875 36.265625 31.179688 36.523438 31.179688 36.84375 L 31.179688 40.554688 C 31.179688 41.230469 30.632812 41.777344 29.964844 41.777344 Z M 29.964844 41.777344 " fill-opacity="1" fill-rule="nonzero"/></g></svg>